<?xml version="1.0" encoding="UTF-8" standalone="no"?><!DOCTYPE svg PUBLIC "-//W3C//DTD SVG 1.1//EN" "http://www.w3.org/Graphics/SVG/1.1/DTD/svg11.dtd"><svg width="100%" height="100%" viewBox="0 0 838 704" version="1.1" xmlns="http://www.w3.org/2000/svg" xmlns:xlink="http://www.w3.org/1999/xlink" xml:space="preserve" xmlns:serif="http://www.serif.com/" style="fill-rule:evenodd;clip-rule:evenodd;stroke-linejoin:round;stroke-miterlimit:2;"><path d="M0,0c0,0 147.8,100.8 67.5,300.3c-80.3,199.5 552.5,77.2 552.5,77.2l-24.2,180.4l40.6,131.5l201,-62.8l0,-626.6l-837.4,0Z" style="fill:#cfc8e1;fill-rule:nonzero;"/><path d="M439.4,310.9c-45.1,-1.6 -88,-16.1 -129,-32c-41,-15.9 -81.5,-33.6 -125.5,-42c-28.3,-5.4 -60.7,-6.2 -83.4,9c-22,14.6 -29,39.7 -32.9,63.1c-2.8,17.6 -4.5,36.1 3.3,52.6c5.5,11.4 15.2,21 21.9,32c23.3,38 6.8,85 -18.5,122.2c-11.8,17.5 -25.5,34.1 -34.7,52.7c-9.2,18.6 -13.3,39.8 -5.3,58.8c7.9,18.7 26.7,32.9 47.2,42.7c41.6,20.1 90.5,26 138.3,29.2c105.7,7.2 212,4 318,1c39.171,-0.342 78.281,-3.147 117.1,-8.4c21.4,-3.4 43.5,-8.8 59.1,-21.6c19.532,-15.499 24.459,-43.459 11.4,-64.7c-22.2,-34.4 -83.5,-43 -99,-80c-8.6,-20.3 0.2,-43 12.6,-61.9c26.6,-40.5 71.2,-76 73.6,-122.3c1.6,-31.8 -19.9,-63.6 -53,-78.6c-34.8,-15.7 -83,-13.7 -108.6,12.3c-26.5,26.8 -72.9,37.2 -112.6,35.8l0,0.1Z" style="fill:#cfc8e1;fill-rule:nonzero;"/></svg>