<?xml version="1.0" encoding="UTF-8" standalone="no"?><!DOCTYPE svg PUBLIC "-//W3C//DTD SVG 1.1//EN" "http://www.w3.org/Graphics/SVG/1.1/DTD/svg11.dtd"><svg width="100%" height="100%" viewBox="0 0 1257 642" version="1.1" xmlns="http://www.w3.org/2000/svg" xmlns:xlink="http://www.w3.org/1999/xlink" xml:space="preserve" xmlns:serif="http://www.serif.com/" style="fill-rule:evenodd;clip-rule:evenodd;stroke-linejoin:round;stroke-miterlimit:2;"><path d="M601.031,566.831l-18,-132.3l11.7,-59.4l0,-1.8l-3.6,-23.4l6.3,-165.6c0,0 0.9,-0.9 0,-0.9l0,-0.9l-9,-58.5c0.9,0 0,-0.9 0,-0.9l9.9,-46.8l0,-0.9l-6.3,-57.6c0,-0.9 0,-0.9 -0.9,-0.9l-32.4,-6.3l-0.9,0l-96.3,11.7l-33.3,-11.7l-0.9,0l-0.9,0.9l9.9,75.6c-0.9,0 0,0.9 0,0.9l-12.6,71.1l0,0.9l12.6,47.7l-9.9,142.2l-12.6,-30.6l0,-0.9l-51.3,-65.7c0,-0.9 0,-0.9 -0.9,-0.9l-38.7,-59.4l0,-0.9l-48.6,-36l-90.9,-128.7l-1.8,-3.6l-0.9,-0.9l-33.3,-6.3l-72.9,-5.4l-0.9,0l-47.7,6.3c-0.9,0 -0.9,0.9 -0.9,0.9l-18,37.8l0,0.9l18.9,133.2l5.4,72l-15.3,47.7l0,1.8l18,99l-15.3,90l0,0.9l9,96.3l0.9,0l-6.3,20.7l0,0.9l0.9,0.9l38.7,0l84.6,5.4l46.8,0l-20.7,-100.8l18,-96.3l0,-48.6l-3.6,-96.3l37.8,57.6l0,0.9l36,27l45,90l0.9,0.9l1.8,0.9l88.2,89.1l39.6,72l0.9,0l22.5,3.6l0.9,0l61.2,0.9l72,-6.3c0.9,0 0.9,-0.9 0.9,-0.9l6.3,-51.3l0,-0.9Zm-571.5,-548.1l44.1,-6.3l11.7,32.4l3.6,9l-59.4,-35.1Zm114.3,-0.9l-4.5,3.6l-47.7,33.3l-8.1,-20.7l-8.1,-21.6l68.4,5.4Zm319.5,6.3l90,-10.8l-63,47.7l-0.9,-0.9l-3.6,-4.5l-22.5,-31.5Zm97.2,-10.8l29.7,5.4l5.4,52.2l-1.8,-3.6l-33.3,-54Zm9.9,20.7l24.3,40.5l-100.8,-12.6l63.9,-48.6l12.6,20.7Zm-132.3,51.3l-9,-71.1l59.4,48.6l-50.4,22.5Zm27,-44.1l-31.5,-27l26.1,9.9l23.4,31.5l-18,-14.4Zm-289.8,-17.1l-76.5,28.8l48.6,-34.2l27.9,5.4Zm-147.6,-4.5l8.1,5.4l54,32.4l-40.5,51.3l-10.8,-44.1l-10.8,-45Zm-18,36.9l16.2,-35.1l19.8,83.7l-36,-48.6Zm112.5,-9.9l56.7,-20.7l3.6,53.1l5.4,81l-94.5,-102.6l28.8,-10.8Zm156.6,200.7l-88.2,-85.5l-8.1,-130.5l96.3,216Zm-91.8,-211.5l85.5,120.6l8.1,89.1l-40.5,-90l-53.1,-119.7Zm-79.2,102.6l-21.6,-9.9l6.3,-68.4l27,48.6l26.1,47.7l-37.8,-18Zm-24.3,-10.8l-33.3,-17.1l40.5,-49.5l-4.5,44.1l-2.7,22.5Zm-55.8,55.8l-18,-122.4l37.8,50.4l-19.8,72Zm411.3,-96.3l50.4,-22.5l-3.6,28.8l-3.6,27.9l-21.6,-16.2l-21.6,-18Zm-341.1,-22.5l88.2,96.3l-36,-2.7l-52.2,-93.6Zm497.7,11.7l-9,45.9l-90,-56.7l99,10.8Zm-85.5,57.6l-25.2,-10.8l6.3,-56.7l58.5,84.6l-39.6,-17.1Zm75.6,-9.9l-31.5,28.8l-60.3,-86.4l91.8,57.6Zm-147.6,-34.2l21.6,16.2l21.6,18l-54.9,33.3l11.7,-67.5Zm-355.5,39.6l-53.1,56.7l19.8,-72.9l33.3,16.2Zm401.4,-3.6l67.5,28.8l-73.8,63l6.3,-91.8Zm-9,91.8l-48.6,-57.6l42.3,-26.1l13.5,-8.1l-2.7,36.9l-4.5,54.9Zm102.6,-61.2l-16.2,56.7l-6.3,-58.5l18,-16.2l12.6,-10.8l-8.1,28.8Zm9.9,-27.9l8.1,54l-32.4,34.2l4.5,-17.1l19.8,-71.1Zm-504.9,35.1l2.7,-32.4l61.2,28.8l-49.5,37.8l-18,13.5l3.6,-47.7Zm-6.3,48.6l-46.8,-22.5l49.5,-53.1l4.5,-4.5l-4.5,47.7l-2.7,32.4Zm426.6,41.4l49.5,-94.5l7.2,60.3l-56.7,34.2Zm0,-4.5l-2.7,5.4l-22.5,-34.2l72,-61.2l-46.8,90Zm-182.7,-55.8l-15.3,23.4l-21.6,32.4l-8.1,-90l45,34.2Zm-170.1,-32.4l36.9,2.7l-15.3,23.4l-14.4,23.4l-4.5,-29.7l-2.7,-19.8Zm-54,40.5l50.4,-38.7l-33.3,97.2l-34.2,-45.9l17.1,-12.6Zm19.8,55.8l6.3,-19.8l26.1,-72.9l7.2,48.6l-39.6,44.1Zm322.2,-50.4l-10.8,-42.3l45,53.1l-15.3,-4.5l-18.9,-6.3Zm-247.5,-41.4l84.6,81.9l-81.9,-45.9l0,-0.9l-2.7,-35.1Zm-31.5,46.8l28.8,-45.9l3.6,34.2l-32.4,11.7Zm436.5,-26.1l-6.3,155.7l-27,-121.5l33.3,-34.2Zm-567,5.4l46.8,22.5l-42.3,45.9l-4.5,-68.4Zm293.4,2.7l37.8,57.6l-74.7,0l36.9,-57.6Zm-76.5,68.4l-58.5,16.2l2.7,-37.8l3.6,-37.8l86.4,49.5l-34.2,9.9Zm-55.8,-38.7l-4.5,52.2l-18,-40.5l-9,-20.7l22.5,-8.1l10.8,-3.6l-1.8,20.7Zm239.4,124.2l9,-138.6l36,11.7l-20.7,59.4l-24.3,67.5Zm-259.2,-100.8l14.4,31.5l-35.1,-9l-34.2,-8.1l41.4,-45.9l13.5,31.5Zm-111.6,-0.9l18.9,-30.6l17.1,22.5l17.1,23.4l-90.9,45.9l37.8,-61.2Zm526.5,83.7l3.6,16.2l-86.4,-89.1l58.5,-35.1l24.3,108Zm-128.7,-48.6l20.7,-58.5l22.5,33.3l-66.6,90.9l23.4,-65.7Zm-435.6,21.6l12.6,-39.6l36,-39.6l-48.6,79.2Zm339.3,-48.6l-28.8,60.3l-22.5,-30.6l-23.4,-29.7l74.7,0Zm-170.1,26.1l90.9,-25.2l-8.1,43.2l-82.8,-18Zm220.5,37.8l-76.5,-2.7l27.9,-60.3l48.6,63Zm-97.2,-24.3l15.3,20.7l-53.1,-16.2l8.1,-42.3l29.7,37.8Zm152.1,12.6l35.1,-46.8l17.1,80.1l-86.4,13.5l34.2,-46.8Zm36.9,-46.8l85.5,89.1l-68.4,-9l-17.1,-80.1Zm-319.5,20.7l-101.7,36l33.3,-53.1l68.4,17.1Zm-132.3,14.4l59.4,-29.7l-32.4,53.1l-55.8,-8.1l28.8,-15.3Zm175.5,44.1l-36.9,-57.6l82.8,18.9l-45.9,38.7Zm-129.6,32.4l-17.1,-51.3l102.6,-36.9l-85.5,88.2Zm91.8,7.2l-42.3,31.5l-11.7,9l51.3,-134.1l2.7,93.6Zm-5.4,-93.6l-13.5,36l-37.8,98.1l-34.2,-45l46.8,-48.6l38.7,-40.5Zm146.7,32.4l-65.7,47.7l4.5,-26.1l7.2,-37.8l34.2,10.8l19.8,5.4Zm-68.4,48.6l-33.3,-25.2l44.1,-37.8l-6.3,37.8l-4.5,25.2Zm-167.4,3.6l-72,-57.6l55.8,8.1l9,26.1l7.2,23.4Zm-73.8,-55.8l74.7,59.4l-19.8,22.5l-20.7,23.4l-34.2,-105.3Zm392.4,6.3l13.5,33.3l-86.4,-35.1l72.9,1.8Zm-105.3,134.1l-43.2,-86.4l22.5,-16.2l43.2,-32.4l-22.5,135Zm90,-27l-62.1,-107.1l91.8,36l-17.1,92.7l-12.6,-21.6Zm10.8,24.3l-99,5.4l23.4,-135.9l28.8,49.5l46.8,81Zm-371.7,-42.3l-14.4,-83.7l29.7,93.6l-15.3,-9.9Zm460.8,-30.6l22.5,-36.9l65.7,8.1l-88.2,28.8Zm-37.8,-27l56.7,-9l-5.4,9l-16.2,27l-35.1,-12.6l-26.1,-9.9l26.1,-4.5Zm60.3,74.7l-22.5,-45.9l89.1,-27.9l-66.6,73.8Zm70.2,-73.8l3.6,20.7l-64.8,46.8l61.2,-67.5Zm-148.5,38.7l-10.8,-33.3l63,22.5l-40.5,45.9l-11.7,-35.1Zm-2.7,0.9l11.7,35.1l-38.7,23.4l17.1,-90.9l9.9,32.4Zm-307.8,29.7l-17.1,12.6l-50.4,38.7l34.2,-97.2l33.3,45.9Zm461.7,-45l-10.8,56.7l-58.5,-6.3l61.2,-45l8.1,-5.4Zm-538.2,45.9l39.6,-44.1l-16.2,45.9l-16.2,46.8l-7.2,-48.6Zm97.2,-13.5l36.9,-27.9l0,45.9l-53.1,-6.3l16.2,-11.7Zm366.3,18.9l-24.3,27.9l-30.6,33.3l28.8,-92.7l3.6,-13.5l22.5,45Zm-63.9,10.8l-0.9,-9.9l39.6,-43.2l-7.2,22.5l-25.2,81l-6.3,-50.4Zm-431.1,53.1l13.5,-80.1l3.6,2.7l12.6,8.1l-29.7,69.3Zm110.7,-69.3l54,6.3l-61.2,73.8l5.4,-63.9l1.8,-16.2Zm-39.6,67.5l-30.6,-14.4l67.5,-51.3l-6.3,80.1l-30.6,-14.4Zm-68.4,6.3l-2.7,1.8l29.7,-72l5.4,39.6l0.9,9l-33.3,21.6Zm495,-66.6l59.4,5.4l-42.3,54.9l-24.3,31.5l5.4,-73.8l1.8,-18Zm-332.1,1.8l-18,90.9l-21.6,-8.1l-21.6,-9l35.1,-43.2l26.1,-30.6Zm257.4,9l5.4,-9l5.4,46.8l1.8,15.3l-54.9,14.4l42.3,-67.5Zm65.7,82.8l-25.2,-14.4l-25.2,-14.4l56.7,-63l-6.3,91.8Zm-101.7,-63l1.8,-7.2l36.9,-21.6l-35.1,55.8l-9.9,15.3l6.3,-42.3Zm162,-9.9l9,-11.7l-16.2,85.5l-49.5,0l56.7,-73.8Zm10.8,-9.9l16.2,122.4l-32.4,-38.7l6.3,-31.5l9.9,-52.2Zm-181.8,67.5l-89.1,-48.6l97.2,-6.3l-8.1,54.9Zm-3.6,38.7l-83.7,-83.7l86.4,46.8l-2.7,36.9Zm-298.8,-1.8l16.2,29.7l-91.8,-73.8l37.8,-23.4l37.8,67.5Zm-8.1,-18l-27,-48.6l61.2,28.8l-1.8,17.1l-5.4,51.3l-27,-48.6Zm410.4,48.6l-97.2,-65.7l20.7,-5.4l34.2,-8.1l42.3,79.2Zm3.6,0l-42.3,-78.3l48.6,27.9l-6.3,50.4Zm-473.4,20.7l-9,-92.7l46.8,36.9l46.8,37.8l-84.6,18Zm88.2,-20.7l4.5,-45l2.7,-22.5l43.2,17.1l-50.4,50.4Zm379.8,0.9l-99.9,-28.8l3.6,-35.1l96.3,63.9Zm63,-50.4l-55.8,50.4l5.4,-37.8l1.8,-12.6l48.6,0Zm-390.6,0l19.8,96.3l-18.9,-11.7l-52.2,-32.4l51.3,-52.2Zm335.7,53.1l58.5,-52.2l22.5,73.8l4.5,15.3l-85.5,-36.9Zm92.7,-11.7l-5.4,45.9l-26.1,-82.8l31.5,36.9Zm-138.6,54.9l-60.3,-72l101.7,29.7l-41.4,42.3Zm-24.3,-25.2l21.6,26.1l-20.7,-3.6l-32.4,-60.3l31.5,37.8Zm-309.6,-2.7l18,28.8l-79.2,-5.4l52.2,-37.8l9,14.4Zm-18.9,-9.9l-45.9,32.4l-29.7,-18.9l81,-17.1l-5.4,3.6Zm481.5,33.3l-66.6,5.4l-16.2,-42.3l82.8,36.9Zm-126,5.4l1.8,-1.8l38.7,-39.6l5.4,13.5l10.8,27.9l-56.7,0Zm-274.5,0l-41.4,0l-25.2,-39.6l66.6,39.6Zm-130.5,-6.3l-34.2,0l5.4,-18l28.8,18Z" style="fill:#504075;fill-rule:nonzero;stroke:#504075;stroke-width:14.06px;"/><path d="M1242.73,53.831l3.6,-20.7c0,-0.9 -0.9,-0.9 -0.9,-0.9l-18,-12.6l-0.9,0l-147.6,-2.7c-0.9,-0.9 -0.9,0 -0.9,0l-18,42.3c0,0 -0.9,0 0,0.9c-0.9,0 0,0 0,0l0,0.9l11.7,53.1l-2.7,156.6l0,1.8l11.7,91.8l-36,93.6l-108,23.4l-74.7,-53.1l-14.4,-36l11.7,-51.3l-15.3,-129.6l10.8,-14.4l0.9,0l0.9,-0.9l5.4,-132.3l0,-0.9l0,-0.9l-9,-41.4l0,-0.9l-36,-11.7l-0.9,-0.9l-45.9,6.3l-22.5,0l-0.9,0l-0.9,0l-65.7,6.3l-0.9,0l-6.3,97.2l14.4,134.1l-12.6,73.8l0,0.9l19.8,153c0,0 -0.9,0.9 0,0.9c-0.9,0 -0.9,0 0,0.9l45,62.1l0,0.9l0.9,0.9l0.9,0l82.8,74.7c0,0.9 0.9,0.9 0.9,0.9l168.3,14.4l0.9,0l157.5,-38.7l0.9,-0.9l0,-1.8l72,-109.8l9,-72l15.3,-63.9l0,-0.9l-15.3,-81l12.6,-45l2.7,-132.3l0,-1.8l-6.3,-32.4Zm-427.5,-44.1l7.2,16.2l11.7,27l-60.3,-37.8l41.4,-5.4Zm2.7,0.9l32.4,10.8l-8.1,19.8l-5.4,12.6l-9.9,-21.6l-9,-21.6Zm-103.5,12.6l30.6,-7.2l-5.4,33.3l-6.3,-3.6l-32.4,-18.9l13.5,-3.6Zm33.3,-7.2l20.7,0l-10.8,12.6l-15.3,18l5.4,-30.6Zm-62.1,5.4l46.8,-4.5l-34.2,9l-12.6,-4.5Zm147.6,35.1l-18,3.6l-37.8,7.2l-1.8,-12.6l-3.6,-37.8l61.2,39.6Zm-63.9,-38.7l6.3,49.5l-33.3,-17.1l27,-32.4Zm293.4,40.5l17.1,-39.6l138.6,2.7l-155.7,36.9Zm-387,48.6l5.4,-84.6l15.3,5.4l-20.7,79.2Zm468.9,-36.9l81,-47.7l14.4,30.6l-95.4,17.1Zm-77.4,-10.8l153,-36l-81.9,47.7l-71.1,-11.7Zm162,-36l14.4,9.9l-2.7,16.2l-5.4,-12.6l-6.3,-13.5Zm-377.1,0.9l8.1,36.9l-9,-1.8l-12.6,-3.6l13.5,-31.5Zm-112.5,27.9l-6.3,82.8l-33.3,-105.3l39.6,22.5Zm-34.2,0.9l27,86.4l-13.5,-5.4l-43.2,-18l22.5,-85.5l7.2,22.5Zm37.8,0.9l16.2,7.2l16.2,9l10.8,42.3l10.8,44.1l-54,-102.6Zm6.3,16.2l48.6,93.6l-62.1,-23.4l0.9,-17.1l4.5,-68.4l8.1,15.3Zm432,48.6l-39.6,-45.9l97.2,-17.1l-57.6,63Zm59.4,-62.1l5.4,29.7l-60.3,30.6l15.3,-17.1l39.6,-43.2Zm-400.5,35.1l12.6,97.2l-61.2,-97.2l-13.5,-21.6l57.6,-11.7l4.5,33.3Zm19.8,-27.9l-5.4,117.9l-16.2,-123.3l21.6,5.4Zm224.1,31.5l-21.6,-34.2l74.7,11.7l-31.5,57.6l-21.6,-35.1Zm-10.8,18l-10.8,-47.7l24.3,38.7l15.3,24.3l-28.8,-15.3Zm-221.4,80.1l-50.4,-28.8l-22.5,-89.1l72.9,117.9Zm302.4,-6.3l-2.7,6.3l-11.7,-117l39.6,44.1l-25.2,66.6Zm-10.8,-52.2l5.4,59.4l-42.3,-62.1l31.5,-55.8l5.4,58.5Zm103.5,-45l-3.6,128.7l-90,-20.7l93.6,-108Zm-4.5,0.9l-88.2,102.6l27.9,-72l60.3,-30.6Zm-171.9,171.9l2.7,-146.7l31.5,17.1l-15.3,56.7l-18.9,72.9Zm-394.2,-143.1l56.7,22.5l15.3,90.9l2.7,13.5l-74.7,-126.9Zm12.6,130.5l-13.5,-127.8l75.6,127.8l-62.1,0Zm385.2,9l32.4,-123.3l42.3,63l-77.4,69.3l2.7,-9Zm-301.5,-45.9l-18.9,35.1l-10.8,-63l-7.2,-42.3l63,23.4l-26.1,46.8Zm27.9,-45.9l40.5,43.2l-85.5,38.7l18.9,-35.1l26.1,-46.8Zm53.1,28.8l-10.8,13.5l-36,-38.7l27,14.4l19.8,10.8Zm298.8,4.5l88.2,19.8l-82.8,40.5l-1.8,-19.8l-3.6,-40.5Zm3.6,60.3l-82.8,9l76.5,-68.4l3.6,28.8l2.7,30.6Zm-323.1,19.8l-77.4,-28.8l85.5,-38.7l-8.1,67.5Zm23.4,52.2l-20.7,-50.4l7.2,-63l13.5,113.4Zm387,-110.7l-11.7,42.3l-70.2,-2.7l81.9,-39.6Zm-566.1,100.8l11.7,-70.2l61.2,0l-72.9,70.2Zm74.7,-69.3l2.7,71.1l-76.5,0l73.8,-71.1Zm1.8,0l99.9,85.5l-97.2,-14.4l-2.7,-71.1Zm94.5,63.9l7.2,19.8l-96.3,-82.8l74.7,28.8l14.4,34.2Zm319.5,38.7l-9.9,-92.7l72,2.7l-62.1,90Zm-97.2,-83.7l84.6,-9l-72.9,99l-11.7,-90Zm84.6,-5.4l-17.1,66.6l-54,28.8l71.1,-95.4Zm10.8,90l-26.1,-22.5l17.1,-66.6l9,89.1Zm65.7,-89.1l14.4,77.4l-76.5,11.7l62.1,-89.1Zm-553.5,58.5l76.5,0l-20.7,66.6l-55.8,-66.6Zm164.7,65.7l-107.1,1.8l19.8,-66.6l87.3,64.8Zm13.5,-50.4l-10.8,49.5l-21.6,-16.2l-63.9,-47.7l96.3,14.4Zm-179.1,-12.6l55.8,65.7l-37.8,81l-18,-146.7Zm411.3,34.2l50.4,-27l26.1,21.6l-76.5,5.4Zm153,-14.4l-49.5,34.2l-50.4,35.1l3.6,-8.1l23.4,-50.4l72.9,-10.8Zm4.5,0l-14.4,60.3l-88.2,11.7l102.6,-72Zm-162,17.1l81,-5.4l-26.1,59.4l-54.9,-54Zm-36.9,90.9l35.1,-90l54.9,54.9l-90,35.1Zm-310.5,-61.2l106.2,-1.8l-57.6,48.6l-48.6,-46.8Zm123.3,31.5l-70.2,14.4l55.8,-46.8l14.4,32.4Zm-162,50.4l36.9,-81l49.5,46.8l-86.4,34.2Zm533.7,-66.6l-9,70.2l-80.1,-58.5l89.1,-11.7Zm-179.1,45.9l86.4,-33.3l79.2,56.7l-167.4,-22.5l1.8,-0.9Zm-191.7,-27l69.3,49.5l-139.5,-36l70.2,-13.5Zm-62.1,54.9l-99,-6.3l84.6,-34.2l8.1,19.8l6.3,20.7Zm130.5,-2.7l-127.8,2.7l-14.4,-39.6l142.2,36.9Zm115.2,-21.6l5.4,18.9l5.4,19.8l-68.4,8.1l-29.7,3.6l87.3,-50.4Zm-106.2,22.5l100.8,-22.5l-87.3,50.4l-13.5,-27.9Zm257.4,9.9l-36,15.3l-107.1,-47.7l165.6,22.5l-22.5,9.9Zm-147.6,-28.8l-0.9,-3.6l106.2,47.7l-25.2,-1.8l-69.3,-7.2l-10.8,-35.1Zm-351,16.2l100.8,6.3l-56.7,54.9l-44.1,-61.2Zm231.3,3.6l-96.3,33.3l-28.8,-30.6l125.1,-2.7Zm15.3,14.4l6.3,14.4l-96.3,46.8l81.9,-74.7l8.1,13.5Zm209.7,90l8.1,-77.4l59.4,-26.1l-67.5,103.5Zm-305.1,-26.1l-15.3,-43.2l99,-33.3l-82.8,76.5l-0.9,0Zm-18.9,-44.1l-84.6,22.5l55.8,-53.1l28.8,30.6Zm128.7,-5.4l99,-10.8l17.1,28.8l8.1,13.5l-124.2,-31.5Zm101.7,-10.8l95.4,9l-70.2,33.3l-25.2,-42.3Zm94.5,50.4l-4.5,40.5l-31.5,-23.4l-31.5,-23.4l72,-34.2l-4.5,40.5Zm-230.4,13.5l-71.1,-3.6l97.2,-47.7l-26.1,51.3Zm88.2,-5.4l-85.5,5.4l25.2,-51.3l60.3,45.9Zm3.6,-0.9l-30.6,-23.4l-27,-20.7l121.5,30.6l-63.9,13.5Zm-269.1,-17.1l83.7,-22.5l15.3,42.3l-99,-19.8Zm78.3,74.7l-81,-72l101.7,19.8l-20.7,52.2Zm320.4,-25.2l-125.1,-30.6l63.9,-14.4l61.2,45Zm-163.8,4.5l34.2,-34.2l124.2,30.6l-158.4,3.6Zm-52.2,-27.9l82.8,-6.3l-16.2,17.1l-18,17.1l-48.6,-27.9Zm-102.6,47.7l7.2,-18l14.4,-33.3l72,2.7l-93.6,48.6Zm6.3,0l90.9,-48.6l0.9,0.9l51.3,27.9l-143.1,19.8Zm162,16.2l-14.4,-34.2l162,-2.7l-147.6,36.9Zm-2.7,0l-158.4,-14.4l144,-19.8l14.4,34.2Z" style="fill:#504075;fill-rule:nonzero;stroke:#504075;stroke-width:14.06px;"/></svg>