<?xml version="1.0" encoding="UTF-8" standalone="no"?><!DOCTYPE svg PUBLIC "-//W3C//DTD SVG 1.1//EN" "http://www.w3.org/Graphics/SVG/1.1/DTD/svg11.dtd"><svg width="100%" height="100%" viewBox="0 0 12363 3096" version="1.1" xmlns="http://www.w3.org/2000/svg" xmlns:xlink="http://www.w3.org/1999/xlink" xml:space="preserve" xmlns:serif="http://www.serif.com/" style="fill-rule:evenodd;clip-rule:evenodd;stroke-linejoin:round;stroke-miterlimit:2;"><g><g><path d="M2829.41,2570.79l-75,-551.25l48.75,-247.5l0,-7.5l-15,-97.5l26.25,-690c0,0 3.75,-3.75 0,-3.75l0,-3.75l-37.5,-243.75c3.75,0 0,-3.75 0,-3.75l41.25,-195l0,-3.75l-26.25,-240c0,-3.75 0,-3.75 -3.75,-3.75l-135,-26.25l-3.75,0l-401.25,48.75l-138.75,-48.75l-3.75,0l-3.75,3.75l41.25,315c-3.75,0 0,3.75 0,3.75l-52.5,296.25l0,3.75l52.5,198.75l-41.25,592.5l-52.5,-127.5l0,-3.75l-213.75,-273.75c0,-3.75 0,-3.75 -3.75,-3.75l-161.25,-247.5l0,-3.75l-202.5,-150l-378.75,-536.25l-7.5,-15l-3.75,-3.75l-138.75,-26.25l-303.75,-22.5l-3.75,0l-198.75,26.25c-3.75,0 -3.75,3.75 -3.75,3.75l-75,157.5l0,3.75l78.75,555l22.5,300l-63.75,198.75l0,7.5l75,412.5l-63.75,375l0,3.75l37.5,401.25l3.75,0l-26.25,86.25l0,3.75l3.75,3.75l161.25,0l352.5,22.5l195,0l-86.25,-420l75,-401.25l0,-202.5l-15,-401.25l157.5,240l0,3.75l150,112.5l187.5,375l3.75,3.75l7.5,3.75l367.5,371.25l165,300l3.75,0l93.75,15l3.75,0l255,3.75l300,-26.25c3.75,0 3.75,-3.75 3.75,-3.75l26.25,-213.75l0,-3.75Zm-2381.25,-2283.75l183.75,-26.25l48.75,135l15,37.5l-247.5,-146.25Zm476.25,-3.75l-18.75,15l-198.75,138.75l-33.75,-86.25l-33.75,-90l285,22.5Zm1331.25,26.25l375,-45l-262.5,198.75l-3.75,-3.75l-15,-18.75l-93.75,-131.25Zm405,-45l123.75,22.5l22.5,217.5l-7.5,-15l-138.75,-225Zm41.25,86.25l101.25,168.75l-420,-52.5l266.25,-202.5l52.5,86.25Zm-551.25,213.75l-37.5,-296.25l247.5,202.5l-210,93.75Zm112.5,-183.75l-131.25,-112.5l108.75,41.25l97.5,131.25l-75,-60Zm-1207.5,-71.25l-318.75,120l202.5,-142.5l116.25,22.5Zm-615,-18.75l33.75,22.5l225,135l-168.75,213.75l-45,-183.75l-45,-187.5Zm-75,153.75l67.5,-146.25l82.5,348.75l-150,-202.5Zm468.75,-41.25l236.25,-86.25l15,221.25l22.5,337.5l-393.75,-427.5l120,-45Zm652.5,836.25l-367.5,-356.25l-33.75,-543.75l401.25,900Zm-382.5,-881.25l356.25,502.5l33.75,371.25l-168.75,-375l-221.25,-498.75Zm-330,427.5l-90,-41.25l26.25,-285l112.5,202.5l108.75,198.75l-157.5,-75Zm-101.25,-45l-138.75,-71.25l168.75,-206.25l-18.75,183.75l-11.25,93.75Zm-232.5,232.5l-75,-510l157.5,210l-82.5,300Zm1713.75,-401.25l210,-93.75l-15,120l-15,116.25l-90,-67.5l-90,-75Zm-1421.25,-93.75l367.5,401.25l-150,-11.25l-217.5,-390Zm2073.75,48.75l-37.5,191.25l-375,-236.25l412.5,45Zm-356.25,240l-105,-45l26.25,-236.25l243.75,352.5l-165,-71.25Zm315,-41.25l-131.25,120l-251.25,-360l382.5,240Zm-615,-142.5l90,67.5l90,75l-228.75,138.75l48.75,-281.25Zm-1481.25,165l-221.25,236.25l82.5,-303.75l138.75,67.5Zm1672.5,-15l281.25,120l-307.5,262.5l26.25,-382.5Zm-37.5,382.5l-202.5,-240l176.25,-108.75l56.25,-33.75l-11.25,153.75l-18.75,228.75Zm427.5,-255l-67.5,236.25l-26.25,-243.75l75,-67.5l52.5,-45l-33.75,120Zm41.25,-116.25l33.75,225l-135,142.5l18.75,-71.25l82.5,-296.25Zm-2103.75,146.25l11.25,-135l255,120l-206.25,157.5l-75,56.25l15,-198.75Zm-26.25,202.5l-195,-93.75l206.25,-221.25l18.75,-18.75l-18.75,198.75l-11.25,135Zm1777.5,172.5l206.25,-393.75l30,251.25l-236.25,142.5Zm0,-18.75l-11.25,22.5l-93.75,-142.5l300,-255l-195,375Zm-761.25,-232.5l-63.75,97.5l-90,135l-33.75,-375l187.5,142.5Zm-708.75,-135l153.75,11.25l-63.75,97.5l-60,97.5l-18.75,-123.75l-11.25,-82.5Zm-225,168.75l210,-161.25l-138.75,405l-142.5,-191.25l71.25,-52.5Zm82.5,232.5l26.25,-82.5l108.75,-303.75l30,202.5l-165,183.75Zm1342.5,-210l-45,-176.25l187.5,221.25l-63.75,-18.75l-78.75,-26.25Zm-1031.25,-172.5l352.5,341.25l-341.25,-191.25l0,-3.75l-11.25,-146.25Zm-131.25,195l120,-191.25l15,142.5l-135,48.75Zm1818.75,-108.75l-26.25,648.75l-112.5,-506.25l138.75,-142.5Zm-2362.5,22.5l195,93.75l-176.25,191.25l-18.75,-285Zm1222.5,11.25l157.5,240l-311.25,0l153.75,-240Zm-318.75,285l-243.75,67.5l11.25,-157.5l15,-157.5l360,206.25l-142.5,41.25Zm-232.5,-161.25l-18.75,217.5l-75,-168.75l-37.5,-86.25l93.75,-33.75l45,-15l-7.5,86.25Zm997.5,517.5l37.5,-577.5l150,48.75l-86.25,247.5l-101.25,281.25Zm-1080,-420l60,131.25l-146.25,-37.5l-142.5,-33.75l172.5,-191.25l56.25,131.25Zm-622.5,251.25l236.25,-382.5l71.25,93.75l71.25,97.5l-378.75,191.25Zm2351.25,93.75l15,67.5l-360,-371.25l243.75,-146.25l101.25,450Zm-536.25,-202.5l86.25,-243.75l93.75,138.75l-277.5,378.75l97.5,-273.75Zm-1815,90l52.5,-165l150,-165l-202.5,330Zm1413.75,-202.5l-120,251.25l-93.75,-127.5l-97.5,-123.75l311.25,0Zm-708.75,108.75l378.75,-105l-33.75,180l-345,-75Zm918.75,157.5l-318.75,-11.25l116.25,-251.25l202.5,262.5Zm-405,-101.25l63.75,86.25l-221.25,-67.5l33.75,-176.25l123.75,157.5Zm633.75,52.5l146.25,-195l71.25,333.75l-360,56.25l142.5,-195Zm153.75,-195l356.25,371.25l-285,-37.5l-71.25,-333.75Zm-1331.25,86.25l-423.75,150l138.75,-221.25l285,71.25Zm-551.25,60l247.5,-123.75l-135,221.25l-232.5,-33.75l120,-63.75Zm731.25,183.75l-153.75,-240l345,78.75l-191.25,161.25Zm-540,135l-71.25,-213.75l427.5,-153.75l-356.25,367.5Zm382.5,30l-176.25,131.25l-48.75,37.5l213.75,-558.75l11.25,390Zm-22.5,-390l-56.25,150l-157.5,408.75l-142.5,-187.5l195,-202.5l161.25,-168.75Zm611.25,135l-273.75,198.75l18.75,-108.75l30,-157.5l142.5,45l82.5,22.5Zm-285,202.5l-138.75,-105l183.75,-157.5l-26.25,157.5l-18.75,105Zm-697.5,15l-300,-240l232.5,33.75l37.5,108.75l30,97.5Zm-307.5,-232.5l311.25,247.5l-82.5,93.75l-86.25,97.5l-142.5,-438.75Zm1635,26.25l56.25,138.75l-360,-146.25l303.75,7.5Zm-438.75,558.75l-180,-360l93.75,-67.5l180,-135l-93.75,562.5Zm375,-112.5l-258.75,-446.25l382.5,150l-71.25,386.25l-52.5,-90Zm45,101.25l-412.5,22.5l97.5,-566.25l120,206.25l195,337.5Zm-1548.75,-176.25l-60,-348.75l123.75,390l-63.75,-41.25Zm1920,-127.5l93.75,-153.75l273.75,33.75l-367.5,120Zm-157.5,-112.5l236.25,-37.5l-90,150l-146.25,-52.5l-108.75,-41.25l108.75,-18.75Zm251.25,311.25l-93.75,-191.25l371.25,-116.25l-277.5,307.5Zm292.5,-307.5l15,86.25l-270,195l255,-281.25Zm-618.75,161.25l-45,-138.75l262.5,93.75l-168.75,191.25l-48.75,-146.25Zm-11.25,3.75l48.75,146.25l-161.25,97.5l71.25,-378.75l41.25,135Zm-1282.5,123.75l-71.25,52.5l-210,161.25l142.5,-405l138.75,191.25Zm1923.75,-187.5l-45,236.25l-243.75,-26.25l255,-187.5l33.75,-22.5Zm-2242.5,191.25l165,-183.75l-67.5,191.25l-67.5,195l-30,-202.5Zm405,-56.25l153.75,-116.25l0,191.25l-221.25,-26.25l67.5,-48.75Zm1526.25,78.75l-101.25,116.25l-127.5,138.75l120,-386.25l15,-56.25l93.75,187.5Zm-266.25,45l-3.75,-41.25l165,-180l-30,93.75l-105,337.5l-26.25,-210Zm-1796.25,221.25l56.25,-333.75l15,11.25l52.5,33.75l-123.75,288.75Zm461.25,-288.75l225,26.25l-255,307.5l22.5,-266.25l7.5,-67.5Zm-37.5,341.25l-255,-120l281.25,-213.75l-26.25,333.75Zm-412.5,-33.75l-11.25,7.5l123.75,-300l22.5,165l3.75,37.5l-138.75,90Zm2062.5,-277.5l247.5,22.5l-176.25,228.75l-101.25,131.25l22.5,-307.5l7.5,-75Zm-1383.75,7.5l-75,378.75l-90,-33.75l-90,-37.5l146.25,-180l108.75,-127.5Zm1072.5,37.5l22.5,-37.5l22.5,195l7.5,63.75l-228.75,60l176.25,-281.25Zm273.75,345l-210,-120l236.25,-262.5l-26.25,382.5Zm-423.75,-262.5l7.5,-30l153.75,-90l-146.25,232.5l-41.25,63.75l26.25,-176.25Zm675,-41.25l37.5,-48.75l-67.5,356.25l-206.25,0l236.25,-307.5Zm45,-41.25l67.5,510l-135,-161.25l26.25,-131.25l41.25,-217.5Zm-757.5,281.25l-371.25,-202.5l405,-26.25l-33.75,228.75Zm-15,161.25l-348.75,-348.75l360,195l-11.25,153.75Zm-1245,-7.5l67.5,123.75l-382.5,-307.5l157.5,-97.5l157.5,281.25Zm78.75,127.5l-225,-405l255,120l-30,285Zm1597.5,0l-405,-273.75l86.25,-22.5l142.5,-33.75l176.25,330Zm15,0l-176.25,-326.25l202.5,116.25l-26.25,210Zm-1972.5,86.25l-37.5,-386.25l195,153.75l195,157.5l-352.5,75Zm367.5,-86.25l18.75,-187.5l11.25,-93.75l180,71.25l-210,210Zm1582.5,3.75l-416.25,-120l15,-146.25l401.25,266.25Zm262.5,-210l-232.5,210l30,-210l202.5,0Zm-1627.5,0l82.5,401.25l-78.75,-48.75l-217.5,-135l213.75,-217.5Zm1398.75,221.25l243.75,-217.5l93.75,307.5l18.75,63.75l-356.25,-153.75Zm386.25,-48.75l-22.5,191.25l-108.75,-345l131.25,153.75Zm-577.5,228.75l-251.25,-300l423.75,123.75l-172.5,176.25Zm-101.25,-105l90,108.75l-86.25,-15l-135,-251.25l131.25,157.5Zm-1327.5,-71.25l112.5,180l-330,-22.5l217.5,-157.5Zm-41.25,18.75l-191.25,135l-123.75,-78.75l337.5,-71.25l-22.5,15Zm2006.25,138.75l-277.5,22.5l-67.5,-176.25l345,153.75Zm-525,22.5l7.5,-7.5l161.25,-165l22.5,56.25l45,116.25l-236.25,0Zm-1143.75,0l-172.5,0l-105,-165l277.5,165Zm-543.75,-26.25l-142.5,0l22.5,-75l120,75Z" style="fill:#504075;fill-rule:nonzero;stroke:#504075;stroke-width:58.59px;"/><path d="M5503.16,433.29l15,-86.25c0,-3.75 -3.75,-3.75 -3.75,-3.75l-75,-52.5l-3.75,0l-615,-11.25c-3.75,-3.75 -3.75,0 -3.75,0l-75,176.25c0,0 -3.75,0 0,3.75c-3.75,0 0,0 0,0l0,3.75l48.75,221.25l-11.25,652.5l0,7.5l48.75,382.5l-150,390l-450,97.5l-311.25,-221.25l-60,-150l48.75,-213.75l-63.75,-540l45,-60l3.75,0l3.75,-3.75l22.5,-551.25l0,-7.5l-37.5,-172.5l0,-3.75l-150,-48.75l-3.75,-3.75l-191.25,26.25l-101.25,0l-273.75,26.25l-3.75,0l-26.25,405l60,558.75l-52.5,307.5l0,3.75l82.5,637.5c0,0 -3.75,3.75 0,3.75c-3.75,0 -3.75,0 0,3.75l187.5,258.75l0,3.75l3.75,3.75l3.75,0l345,311.25c0,3.75 3.75,3.75 3.75,3.75l701.25,60l3.75,0l656.25,-161.25l3.75,-3.75l0,-7.5l300,-457.5l37.5,-300l63.75,-266.25l0,-3.75l-63.75,-337.5l52.5,-187.5l11.25,-551.25l0,-7.5l-26.25,-135Zm-1781.25,-183.75l30,67.5l48.75,112.5l-251.25,-157.5l172.5,-22.5Zm11.25,3.75l135,45l-33.75,82.5l-22.5,52.5l-41.25,-90l-37.5,-90Zm-431.25,52.5l127.5,-30l-22.5,138.75l-26.25,-15l-135,-78.75l56.25,-15Zm138.75,-30l86.25,0l-45,52.5l-63.75,75l22.5,-127.5Zm-258.75,22.5l195,-18.75l-142.5,37.5l-52.5,-18.75Zm615,146.25l-75,15l-157.5,30l-7.5,-52.5l-15,-157.5l255,165Zm-266.25,-161.25l26.25,206.25l-138.75,-71.25l112.5,-135Zm1222.5,168.75l71.25,-165l577.5,11.25l-648.75,153.75Zm-1612.5,202.5l22.5,-352.5l63.75,22.5l-86.25,330Zm1953.75,-153.75l337.5,-198.75l60,127.5l-397.5,71.25Zm-322.5,-45l637.5,-150l-341.25,198.75l-296.25,-48.75Zm675,-150l60,41.25l-11.25,67.5l-22.5,-52.5l-26.25,-56.25Zm-1571.25,3.75l33.75,153.75l-37.5,-7.5l-52.5,-15l56.25,-131.25Zm-468.75,116.25l-26.25,345l-138.75,-438.75l165,93.75Zm-142.5,3.75l112.5,360l-56.25,-22.5l-180,-75l93.75,-356.25l30,93.75Zm157.5,3.75l67.5,30l67.5,37.5l45,176.25l45,183.75l-225,-427.5Zm26.25,67.5l202.5,390l-258.75,-97.5l3.75,-71.25l18.75,-285l33.75,63.75Zm1800,202.5l-165,-191.25l405,-71.25l-240,262.5Zm247.5,-258.75l22.5,123.75l-251.25,127.5l63.75,-71.25l165,-180Zm-1668.75,146.25l52.5,405l-255,-405l-56.25,-90l240,-48.75l18.75,138.75Zm82.5,-116.25l-22.5,491.25l-67.5,-513.75l90,22.5Zm933.75,131.25l-90,-142.5l311.25,48.75l-131.25,240l-90,-146.25Zm-45,75l-45,-198.75l101.25,161.25l63.75,101.25l-120,-63.75Zm-922.5,333.75l-210,-120l-93.75,-371.25l303.75,491.25Zm1260,-26.25l-11.25,26.25l-48.75,-487.5l165,183.75l-105,277.5Zm-45,-217.5l22.5,247.5l-176.25,-258.75l131.25,-232.5l22.5,243.75Zm431.25,-187.5l-15,536.25l-375,-86.25l390,-450Zm-18.75,3.75l-367.5,427.5l116.25,-300l251.25,-127.5Zm-716.25,716.25l11.25,-611.25l131.25,71.25l-63.75,236.25l-78.75,303.75Zm-1642.5,-596.25l236.25,93.75l63.75,378.75l11.25,56.25l-311.25,-528.75Zm52.5,543.75l-56.25,-532.5l315,532.5l-258.75,0Zm1605,37.5l135,-513.75l176.25,262.5l-322.5,288.75l11.25,-37.5Zm-1256.25,-191.25l-78.75,146.25l-45,-262.5l-30,-176.25l262.5,97.5l-108.75,195Zm116.25,-191.25l168.75,180l-356.25,161.25l78.75,-146.25l108.75,-195Zm221.25,120l-45,56.25l-150,-161.25l112.5,60l82.5,45Zm1245,18.75l367.5,82.5l-345,168.75l-7.5,-82.5l-15,-168.75Zm15,251.25l-345,37.5l318.75,-285l15,120l11.25,127.5Zm-1346.25,82.5l-322.5,-120l356.25,-161.25l-33.75,281.25Zm97.5,217.5l-86.25,-210l30,-262.5l56.25,472.5Zm1612.5,-461.25l-48.75,176.25l-292.5,-11.25l341.25,-165Zm-2358.75,420l48.75,-292.5l255,0l-303.75,292.5Zm311.25,-288.75l11.25,296.25l-318.75,0l307.5,-296.25Zm7.5,0l416.25,356.25l-405,-60l-11.25,-296.25Zm393.75,266.25l30,82.5l-401.25,-345l311.25,120l60,142.5Zm1331.25,161.25l-41.25,-386.25l300,11.25l-258.75,375Zm-405,-348.75l352.5,-37.5l-303.75,412.5l-48.75,-375Zm352.5,-22.5l-71.25,277.5l-225,120l296.25,-397.5Zm45,375l-108.75,-93.75l71.25,-277.5l37.5,371.25Zm273.75,-371.25l60,322.5l-318.75,48.75l258.75,-371.25Zm-2306.25,243.75l318.75,0l-86.25,277.5l-232.5,-277.5Zm686.25,273.75l-446.25,7.5l82.5,-277.5l363.75,270Zm56.25,-210l-45,206.25l-90,-67.5l-266.25,-198.75l401.25,60Zm-746.25,-52.5l232.5,273.75l-157.5,337.5l-75,-611.25Zm1713.75,142.5l210,-112.5l108.75,90l-318.75,22.5Zm637.5,-60l-206.25,142.5l-210,146.25l15,-33.75l97.5,-210l303.75,-45Zm18.75,0l-60,251.25l-367.5,48.75l427.5,-300Zm-675,71.25l337.5,-22.5l-108.75,247.5l-228.75,-225Zm-153.75,378.75l146.25,-375l228.75,228.75l-375,146.25Zm-1293.75,-255l442.5,-7.5l-240,202.5l-202.5,-195Zm513.75,131.25l-292.5,60l232.5,-195l60,135Zm-675,210l153.75,-337.5l206.25,195l-360,142.5Zm2223.75,-277.5l-37.5,292.5l-333.75,-243.75l371.25,-48.75Zm-746.25,191.25l360,-138.75l330,236.25l-697.5,-93.75l7.5,-3.75Zm-798.75,-112.5l288.75,206.25l-581.25,-150l292.5,-56.25Zm-258.75,228.75l-412.5,-26.25l352.5,-142.5l33.75,82.5l26.25,86.25Zm543.75,-11.25l-532.5,11.25l-60,-165l592.5,153.75Zm480,-90l22.5,78.75l22.5,82.5l-285,33.75l-123.75,15l363.75,-210Zm-442.5,93.75l420,-93.75l-363.75,210l-56.25,-116.25Zm1072.5,41.25l-150,63.75l-446.25,-198.75l690,93.75l-93.75,41.25Zm-615,-120l-3.75,-15l442.5,198.75l-105,-7.5l-288.75,-30l-45,-146.25Zm-1462.5,67.5l420,26.25l-236.25,228.75l-183.75,-255Zm963.75,15l-401.25,138.75l-120,-127.5l521.25,-11.25Zm63.75,60l26.25,60l-401.25,195l341.25,-311.25l33.75,56.25Zm873.75,375l33.75,-322.5l247.5,-108.75l-281.25,431.25Zm-1271.25,-108.75l-63.75,-180l412.5,-138.75l-345,318.75l-3.75,0Zm-78.75,-183.75l-352.5,93.75l232.5,-221.25l120,127.5Zm536.25,-22.5l412.5,-45l71.25,120l33.75,56.25l-517.5,-131.25Zm423.75,-45l397.5,37.5l-292.5,138.75l-105,-176.25Zm412.5,41.25l-37.5,337.5l-262.5,-195l300,-142.5Zm-978.75,225l-296.25,-15l405,-198.75l-108.75,213.75Zm367.5,-22.5l-356.25,22.5l105,-213.75l251.25,191.25Zm15,-3.75l-127.5,-97.5l-112.5,-86.25l506.25,127.5l-266.25,56.25Zm-1121.25,-71.25l348.75,-93.75l63.75,176.25l-412.5,-82.5Zm326.25,311.25l-337.5,-300l423.75,82.5l-86.25,217.5Zm1335,-105l-521.25,-127.5l266.25,-60l255,187.5Zm-682.5,18.75l142.5,-142.5l517.5,127.5l-660,15Zm-217.5,-116.25l345,-26.25l-67.5,71.25l-75,71.25l-202.5,-116.25Zm-427.5,198.75l30,-75l60,-138.75l300,11.25l-390,202.5Zm26.25,0l378.75,-202.5l3.75,3.75l213.75,116.25l-596.25,82.5Zm675,67.5l-60,-142.5l675,-11.25l-615,153.75Zm-11.25,0l-660,-60l600,-82.5l60,142.5Z" style="fill:#504075;fill-rule:nonzero;stroke:#504075;stroke-width:58.59px;"/></g><g><path d="M8176.91,373.29c3.75,0 3.75,-3.75 0,-3.75l26.25,-120l0,-7.5l-3.75,-3.75l-363.75,52.5l-135,-48.75l-3.75,-3.75c-3.75,0 -3.75,0 -3.75,3.75l-198.75,48.75c-3.75,0 -3.75,0 -3.75,3.75l-48.75,348.75c-3.75,3.75 -3.75,3.75 0,7.5l75,150l-52.5,446.25l-232.5,-37.5l-3.75,0l-150,26.25l-375,-37.5c0,-3.75 -3.75,-3.75 -3.75,0l-67.5,45l-63.75,-330l33.75,-60c3.75,0 3.75,-3.75 3.75,-3.75l37.5,-135l0,-3.75l-48.75,-427.5c0,-3.75 0,-3.75 -3.75,-3.75c0,0 0,-3.75 -3.75,0l-270,-26.25l-7.5,0l-97.5,26.25c0,0 0,-3.75 -3.75,0l-157.5,-52.5l-3.75,0l-198.75,52.5c-3.75,0 -3.75,-3.75 -3.75,0l-3.75,0l0,3.75l37.5,176.25l-22.5,573.75l0,7.5l22.5,75l-48.75,386.25l0,3.75l63.75,438.75l0,3.75l26.25,131.25l-63.75,641.25l0,3.75l22.5,75l3.75,3.75l708.75,0l3.75,-3.75l48.75,-123.75l0,-7.5l-48.75,-798.75l60,-48.75l517.5,52.5l330,-37.5l-37.5,397.5l26.25,401.25l-26.25,176.25l3.75,3.75l3.75,0l150,-22.5l296.25,22.5l7.5,0l262.5,-22.5c0,0 0,-3.75 3.75,-3.75l0,-3.75l-37.5,-251.25l48.75,-371.25l0,-483.75l15,-213.75l-52.5,-273.75l63.75,-288.75l0,-7.5l-52.5,-521.25Zm-2321.25,-90l183.75,-45l-82.5,157.5l-48.75,-52.5l-52.5,-60Zm195,-45l150,45l-228.75,112.5l78.75,-157.5Zm1402.5,386.25l45,-326.25l187.5,-48.75l-138.75,228.75l-93.75,146.25Zm731.25,-375l-52.5,37.5l-206.25,150l-82.5,-138.75l341.25,-48.75Zm-480,3.75l123.75,45l-67.5,112.5l-56.25,-157.5Zm-11.25,3.75l37.5,213.75l11.25,71.25l-285,97.5l236.25,-382.5Zm498.75,0l-22.5,108.75l-221.25,67.5l243.75,-176.25Zm-1882.5,3.75l3.75,30l15,82.5l-71.25,-60l-37.5,-30l90,-22.5Zm131.25,33.75l52.5,15l-153.75,67.5l-22.5,-112.5l123.75,30Zm127.5,-11.25l-56.25,18.75l-135,-33.75l191.25,15Zm18.75,3.75l37.5,367.5l-105,-345l67.5,-22.5Zm-558.75,131.25l-56.25,-11.25l232.5,-116.25l-22.5,161.25l-153.75,-33.75Zm187.5,-127.5l112.5,90l-135,71.25l22.5,-161.25Zm1496.25,37.5l-3.75,-37.5l45,131.25l-7.5,86.25l-33.75,-180Zm-1826.25,123.75l-30,-153.75l97.5,108.75l-67.5,45Zm2028.75,-11.25l-146.25,-26.25l67.5,-108.75l78.75,135Zm-1548.75,270l-18.75,-270l-3.75,-52.5l56.25,-26.25l105,-41.25l-138.75,390Zm153.75,-363.75l112.5,360l-262.5,22.5l33.75,-93.75l108.75,-311.25l7.5,22.5Zm1406.25,101.25l225,-63.75l-296.25,322.5l71.25,-258.75Zm236.25,-56.25l-165,570l-142.5,-240l307.5,-330Zm60,502.5l-217.5,71.25l168.75,-573.75l48.75,502.5Zm-2032.5,-431.25l135,-67.5l-202.5,408.75l67.5,-341.25Zm-11.25,341.25l-56.25,22.5l71.25,-142.5l142.5,-281.25l22.5,326.25l-180,75Zm-213.75,-390l105,22.5l108.75,22.5l-221.25,393.75l-90,161.25l97.5,-600Zm-97.5,547.5l22.5,-502.5l22.5,-15l41.25,-26.25l-86.25,543.75Zm1957.5,-528.75l86.25,15l-157.5,90l11.25,-112.5l60,7.5Zm90,22.5l-67.5,255l-93.75,-161.25l161.25,-93.75Zm-1953.75,412.5l213.75,-375l-67.5,337.5l-228.75,183.75l82.5,-146.25Zm1567.5,-71.25l213.75,-240l0,405l-213.75,-165Zm-78.75,-146.25l277.5,-93.75l-82.5,93.75l-123.75,138.75l-71.25,-138.75Zm300,300l0,-386.25l33.75,52.5l60,108.75l-93.75,225Zm-1383.75,-210l255,-26.25l-161.25,142.5l-165,138.75l15,-56.25l56.25,-198.75Zm266.25,-15l-33.75,120l-273.75,138.75l307.5,-258.75Zm1177.5,105l33.75,-86.25l26.25,202.5l18.75,161.25l-135,-135l56.25,-142.5Zm-1691.25,7.5l120,-48.75l116.25,-45l-71.25,258.75l-165,-165Zm1781.25,270l-30,-232.5l-15,-131.25l138.75,228.75l-93.75,135Zm-341.25,-161.25l-30,-138.75l60,48.75l153.75,120l-45,157.5l-52.5,191.25l-86.25,-378.75Zm-82.5,300l45,-423.75l52.5,228.75l63.75,292.5l-30,-18.75l-131.25,-78.75Zm-1417.5,-337.5l52.5,-67.5l168.75,168.75l-382.5,93.75l161.25,-195Zm532.5,-48.75l-30,45l-198.75,71.25l-11.25,7.5l78.75,-41.25l161.25,-82.5Zm-727.5,180l213.75,-172.5l-135,165l-56.25,71.25l-22.5,-63.75Zm2355,-135l-60,273.75l-101.25,-135l-52.5,-67.5l213.75,-71.25Zm-1597.5,333.75l-101.25,-71.25l-221.25,-153.75l172.5,-63.75l90,-33.75l60,322.5Zm1462.5,-75l-180,-45l45,-67.5l48.75,-71.25l150,198.75l-63.75,-15Zm-427.5,172.5l7.5,-26.25l86.25,-326.25l142.5,138.75l-236.25,213.75Zm-1380,-318.75l-60,93.75l-33.75,45l-277.5,-45l371.25,-93.75Zm232.5,157.5l108.75,75l-277.5,202.5l-48.75,-431.25l217.5,153.75Zm-206.25,15l26.25,243.75l-90,-176.25l-48.75,-93.75l93.75,-138.75l18.75,165Zm-405,56.25l-7.5,-127.5l142.5,22.5l142.5,26.25l-262.5,273.75l-15,-195Zm2171.25,15l-41.25,33.75l-41.25,-56.25l-75,-105l120,26.25l120,30l-82.5,71.25Zm-48.75,41.25l-93.75,442.5l-15,-420l-7.5,-187.5l116.25,165Zm-371.25,52.5l225,-202.5l-127.5,187.5l-225,318.75l127.5,-303.75Zm-120,307.5l352.5,-506.25l-105,393.75l-33.75,123.75l-236.25,22.5l22.5,-33.75Zm-1646.25,-506.25l22.5,292.5l-45,30l-18.75,15l41.25,-337.5Zm2006.25,18.75l3.75,-15l26.25,611.25l-165,-93.75l135,-502.5Zm-1803.75,453.75l-168.75,-176.25l262.5,-277.5l-18.75,97.5l-75,356.25Zm247.5,-161.25l-93.75,292.5l-22.5,-262.5l-22.5,-311.25l138.75,281.25Zm1875,-15l-176.25,-150l71.25,-60l56.25,-45l48.75,255Zm-2021.25,-255l45,581.25l-138.75,-138.75l93.75,-442.5Zm532.5,7.5l352.5,37.5l-90,165l-262.5,-202.5Zm-82.5,45l63.75,-45l243.75,187.5l-307.5,-142.5Zm588.75,-33.75l71.25,371.25l-210,-345l138.75,-26.25Zm232.5,37.5l3.75,0l-86.25,198.75l-67.5,146.25l-71.25,-382.5l120,26.25l101.25,11.25Zm-390,11.25l11.25,-18.75l210,348.75l-191.25,-112.5l-108.75,-71.25l78.75,-146.25Zm-435,-7.5l341.25,157.5l-356.25,217.5l15,-375Zm1005,93.75l-138.75,330l-15,-300l-7.5,-123.75l161.25,93.75Zm-1035,-78.75l-352.5,495l93.75,-300l258.75,-195Zm768.75,213.75l97.5,-213.75l22.5,423.75l-15,-7.5l-161.25,-75l56.25,-127.5Zm-922.5,288.75l131.25,-375l37.5,-116.25l-7.5,352.5l-161.25,138.75Zm-30,-225l191.25,-262.5l-97.5,270l-78.75,228.75l-187.5,0l172.5,-236.25Zm1785,-86.25l-101.25,22.5l-67.5,-168.75l168.75,146.25Zm-112.5,22.5l-157.5,262.5l71.25,-356.25l18.75,-75l67.5,168.75Zm-1462.5,150l348.75,-213.75l75,168.75l18.75,45l-442.5,0Zm420,-82.5l-52.5,-123.75l292.5,183.75l-206.25,22.5l-33.75,-82.5Zm-1203.75,-52.5l63.75,-41.25l120,127.5l30,30l-213.75,-116.25Zm2362.5,-30l-11.25,191.25l-90,-168.75l101.25,-22.5Zm-15,206.25l-258.75,93.75l165,-273.75l93.75,180Zm-2291.25,251.25l-60,-420l37.5,22.5l202.5,112.5l-180,285Zm1245,-213.75l157.5,-93.75l3.75,3.75l183.75,195l-345,-105Zm-60,-71.25l56.25,-7.5l142.5,-11.25l-150,86.25l-48.75,-67.5Zm412.5,168.75l-168.75,-180l97.5,45l63.75,30l0,22.5l7.5,82.5Zm-877.5,-168.75l435,0l-401.25,165l-33.75,-165Zm82.5,157.5l105,-45l270,-108.75l48.75,63.75l-423.75,90Zm-120,56.25l-138.75,-67.5l52.5,-45l108.75,-93.75l-22.5,206.25Zm-491.25,-202.5l138.75,135l-116.25,71.25l-22.5,-206.25Zm-67.5,236.25l-116.25,41.25l172.5,-277.5l22.5,168.75l3.75,37.5l-82.5,30Zm622.5,-75l-52.5,41.25l3.75,-56.25l15,-127.5l33.75,142.5Zm1166.25,270l-307.5,-378.75l236.25,-26.25l71.25,405Zm3.75,-45l-63.75,-356.25l33.75,18.75l131.25,78.75l-93.75,300l-7.5,-41.25Zm363.75,-352.5l-195,225l-153.75,172.5l93.75,-303.75l255,-93.75Zm-60,412.5l-288.75,0l360,-408.75l-71.25,408.75Zm-607.5,-273.75l-11.25,-105l273.75,333.75l-262.5,-228.75Zm-832.5,-11.25l450,-93.75l11.25,45l22.5,93.75l-483.75,-45Zm495,45l-33.75,-138.75l341.25,105l-307.5,33.75Zm1020,288.75l-67.5,-48.75l67.5,-371.25l0,420Zm-1785,-270l-26.25,78.75l-67.5,-78.75l-71.25,-82.5l183.75,0l-18.75,82.5Zm-15,75l45,-157.5l135,67.5l-180,90Zm-255,90l-26.25,-172.5l67.5,-41.25l45,-30l-67.5,360l-18.75,-116.25Zm101.25,-240l138.75,161.25l-210,210l71.25,-371.25Zm1233.75,420l33.75,-386.25l303.75,266.25l-337.5,120Zm-1323.75,-41.25l-247.5,-240l202.5,-71.25l11.25,78.75l33.75,232.5Zm360,213.75l-86.25,-300l-33.75,-127.5l187.5,-93.75l-67.5,521.25Zm120,251.25l-33.75,-71.25l-78.75,-157.5l67.5,-498.75l45,727.5Zm-727.5,-690l127.5,120l101.25,97.5l-75,-33.75l-131.25,-63.75l-22.5,-120Zm596.25,450l-333.75,-213.75l217.5,-217.5l116.25,431.25Zm-633.75,292.5l60,-611.25l225,105l-285,506.25Zm1957.5,-592.5l285,0l-63.75,37.5l-292.5,176.25l71.25,-213.75Zm367.5,48.75l-176.25,266.25l33.75,-93.75l78.75,-217.5l63.75,45Zm-693.75,461.25l-22.5,-382.5l333.75,-120l-311.25,502.5Zm611.25,-498.75l-262.5,405l-93.75,-191.25l356.25,-213.75Zm-566.25,450l262.5,-431.25l-63.75,191.25l-198.75,240Zm502.5,-262.5l-52.5,146.25l-131.25,67.5l82.5,-127.5l157.5,-243.75l-56.25,157.5Zm146.25,-131.25l-45,352.5l-142.5,-71.25l187.5,-281.25Zm-2025,412.5l0,-386.25l337.5,217.5l-337.5,168.75Zm-296.25,123.75l285,-502.5l0,382.5l-285,120Zm1773.75,-101.25l-138.75,18.75l232.5,-281.25l-45,255l-48.75,7.5Zm60,-15l45,-247.5l90,183.75l-135,63.75Zm-1365,82.5l-33.75,-56.25l198.75,-187.5l-93.75,348.75l-71.25,-105Zm221.25,30l-138.75,75l93.75,-345l78.75,153.75l37.5,78.75l-71.25,37.5Zm-382.5,-112.5l311.25,-157.5l-187.5,180l-123.75,-22.5Zm1751.25,153.75l-7.5,41.25l-67.5,-255l138.75,-71.25l-63.75,285Zm161.25,-150l-161.25,191.25l11.25,-48.75l60,-277.5l142.5,71.25l-52.5,63.75Zm90,180l-247.5,26.25l108.75,-131.25l105,-131.25l33.75,236.25Zm-266.25,26.25l-285,-22.5l217.5,-240l67.5,262.5Zm-213.75,-191.25l127.5,-67.5l-191.25,213.75l63.75,-146.25Zm-1440,123.75l-11.25,45l-82.5,-180l127.5,22.5l-33.75,112.5Zm-18.75,56.25l-345,0l262.5,-191.25l41.25,97.5l41.25,93.75Zm-356.25,-3.75l-22.5,-63.75l191.25,-82.5l71.25,-30l-240,176.25Zm1590,7.5l22.5,-161.25l37.5,-3.75l142.5,-15l-202.5,180Zm7.5,3.75l86.25,-75l112.5,-101.25l-15,33.75l-48.75,120l-135,22.5Zm-1080,-7.5l-150,0l11.25,-41.25l37.5,-116.25l33.75,48.75l67.5,108.75Zm228.75,-112.5l-45,112.5l-157.5,0l202.5,-112.5Z" style="fill:#ad9fca;fill-rule:nonzero;stroke:#504075;stroke-width:3.13px;"/><path d="M10899.4,767.04l-157.5,-146.25l11.25,-60c0,-3.75 0,-3.75 -3.75,-7.5l-363.75,-213.75l-378.75,-86.25l-247.5,-11.25l-161.25,26.25l-243.75,11.25c-3.75,-3.75 -3.75,0 -3.75,0l-3.75,0l0,3.75l-172.5,146.25l-3.75,3.75l-401.25,285l0,3.75l-187.5,412.5l0,3.75l-52.5,187.5l7.5,525l78.75,247.5c-3.75,0 -3.75,3.75 0,3.75c-3.75,0 0,3.75 0,3.75l176.25,360l0,7.5l3.75,3.75l161.25,82.5l52.5,112.5c-3.75,3.75 0,3.75 0,3.75l495,165l450,26.25l240,-15l3.75,0l105,-48.75l270,-138.75l3.75,0l322.5,-363.75c3.75,0 3.75,-3.75 3.75,-3.75l-187.5,-270l-3.75,0l-311.25,-108.75l-3.75,-3.75l-180,213.75l-300,101.25l-288.75,-52.5l-221.25,-97.5l-63.75,-187.5l-120,-288.75l93.75,-468.75l176.25,-131.25l206.25,-101.25l3.75,0l191.25,-37.5l360,165l3.75,0l123.75,135l0,3.75l3.75,0l112.5,-90c3.75,0 3.75,0 3.75,-3.75l187.5,-97.5l63.75,-86.25l150,-112.5l0,-7.5l-3.75,-3.75Zm-1128.75,-513.75l232.5,11.25l82.5,330l-315,-341.25Zm-15,0l3.75,345l-153.75,-322.5l150,-22.5Zm161.25,172.5l165,180l-311.25,15l-3.75,-90l-3.75,-270l153.75,165Zm112.5,-157.5l348.75,78.75l-22.5,142.5l-82.5,-56.25l-243.75,-165Zm315,228.75l-247.5,105l-82.5,-330l330,225Zm-750,-221.25l153.75,330l-386.25,-318.75l232.5,-11.25Zm75,468.75l-176.25,240l-135,-690l401.25,330l-90,120Zm-487.5,-311.25l165,-138.75l-45,303.75l-120,-165Zm168.75,-123.75l75,390l52.5,262.5l-165,-341.25l0,-7.5l37.5,-303.75Zm1376.25,311.25l-30,15l-157.5,67.5l-142.5,-341.25l330,258.75Zm-341.25,-255l120,281.25l15,37.5l-157.5,-191.25l22.5,-127.5Zm52.5,15l307.5,183.75l-11.25,48.75l-296.25,-232.5Zm-1263.75,60l123.75,168.75l-506.25,105l382.5,-273.75Zm993.75,341.25l-67.5,-168.75l251.25,-108.75l-45,255l-52.5,247.5l-86.25,-225Zm360,-71.25l-262.5,296.25l97.5,-502.5l108.75,138.75l56.25,67.5Zm-753.75,-82.5l307.5,-15l-183.75,236.25l-123.75,-221.25Zm131.25,232.5l93.75,-120l93.75,-123.75l157.5,397.5l-345,-153.75Zm-626.25,-236.25l-408.75,273.75l-90,-172.5l498.75,-101.25Zm1271.25,82.5l183.75,-78.75l146.25,135l-165,-26.25l-165,-30Zm-1181.25,326.25l-225,71.25l82.5,-236.25l78.75,-236.25l176.25,363.75l-112.5,37.5Zm-416.25,45l-78.75,-172.5l412.5,-270l-183.75,258.75l-142.5,195l-7.5,-11.25Zm750,-183.75l63.75,-258.75l108.75,191.25l15,30l-187.5,37.5Zm-491.25,-11.25l-78.75,225l-161.25,-15l322.5,-450l-82.5,240Zm292.5,105l7.5,-11.25l240,-326.25l-56.25,243.75l-191.25,93.75Zm1380,-213.75l-135,105l-198.75,-161.25l333.75,56.25Zm-371.25,97.5l-22.5,198.75l-225,-48.75l22.5,-26.25l240,-266.25l-15,142.5Zm165,101.25l-176.25,93.75l33.75,-337.5l142.5,243.75Zm7.5,-7.5l-33.75,-60l-97.5,-172.5l187.5,153.75l-56.25,78.75Zm-1908.75,-225l86.25,165l-187.5,517.5l101.25,-682.5Zm-187.5,397.5l176.25,-382.5l-101.25,686.25l-75,-303.75Zm206.25,-30l71.25,-195l3.75,11.25l82.5,172.5l-236.25,296.25l-37.5,48.75l116.25,-333.75Zm667.5,-93.75l-153.75,112.5l-146.25,-15l217.5,-71.25l82.5,-26.25Zm1023.75,63.75l-101.25,78.75l-116.25,-123.75l217.5,45Zm-1406.25,288.75l-41.25,221.25l-75,-483.75l165,15l-48.75,247.5Zm-251.25,285l-157.5,-187.5l281.25,-348.75l-78.75,588.75l-45,-52.5Zm435,-288.75l-45,217.5l-75,-461.25l165,15l-45,228.75Zm-322.5,-108.75l18.75,-123.75l71.25,480l-150,93.75l60,-450Zm270,345l-168.75,7.5l63.75,-326.25l30,-142.5l3.75,37.5l71.25,423.75Zm-675,-273.75l48.75,-168.75l37.5,146.25l33.75,146.25l-120,-123.75Zm56.25,345l-48.75,153.75l-7.5,-487.5l123.75,131.25l-67.5,202.5Zm56.25,67.5l18.75,-262.5l202.5,243.75l-247.5,367.5l26.25,-348.75Zm-105,112.5l112.5,-348.75l-41.25,573.75l-71.25,-225Zm675,-180l26.25,438.75l-198.75,-491.25l168.75,-11.25l3.75,63.75Zm18.75,453.75l-352.5,-408.75l150,-97.5l202.5,506.25Zm97.5,-228.75l-82.5,221.25l-15,-266.25l-11.25,-217.5l108.75,262.5Zm-431.25,187.5l-22.5,-352.5l360,412.5l-330,30l-7.5,-90Zm-108.75,367.5l-172.5,-348.75l247.5,-363.75l-33.75,318.75l-41.25,393.75Zm15,-67.5l67.5,-611.25l22.5,405l-93.75,258.75l3.75,-52.5Zm585,-303.75l-82.5,37.5l-52.5,22.5l78.75,-232.5l56.25,172.5Zm1020,-150l292.5,105l30,273.75l-322.5,-378.75Zm-75,165l56.25,-161.25l45,127.5l78.75,232.5l-232.5,-41.25l52.5,-157.5Zm45,-153.75l-3.75,11.25l-101.25,288.75l-56.25,-108.75l161.25,-191.25Zm240,251.25l105,127.5l-195,-22.5l-105,-296.25l-22.5,-60l217.5,251.25Zm266.25,97.5l-142.5,30l-3.75,-45l-26.25,-221.25l172.5,236.25Zm-1293.75,-116.25l-206.25,-18.75l-120,-11.25l131.25,-56.25l86.25,37.5l108.75,48.75Zm345,56.25l273.75,-93.75l60,112.5l-333.75,-18.75Zm-1012.5,-48.75l318.75,-30l108.75,172.5l-427.5,-142.5Zm438.75,142.5l-108.75,-172.5l345,33.75l-236.25,138.75Zm262.5,-127.5l191.25,198.75l-442.5,-67.5l97.5,-56.25l150,-82.5l3.75,7.5Zm-296.25,371.25l-408.75,-378.75l435,146.25l-26.25,232.5Zm468.75,-348.75l108.75,18.75l-75,157.5l-195,-202.5l161.25,26.25Zm-862.5,326.25l-138.75,-75l101.25,-270l48.75,352.5l-11.25,-7.5Zm22.5,11.25l-7.5,-60l-41.25,-296.25l150,240l146.25,243.75l-247.5,-127.5Zm202.5,33.75l-232.5,-378.75l112.5,101.25l285,266.25l-105,108.75l-60,-97.5Zm716.25,-266.25l41.25,-86.25l333.75,22.5l-408.75,135l33.75,-71.25Zm-26.25,78.75l423.75,-142.5l75,266.25l-498.75,-123.75Zm435,-142.5l232.5,45l-157.5,217.5l-37.5,-127.5l-37.5,-135Zm300,371.25l30,-63.75l127.5,-236.25l33.75,-7.5l101.25,-18.75l-292.5,326.25Zm22.5,-228.75l-71.25,-97.5l187.5,26.25l-116.25,71.25Zm-236.25,120l153.75,-213.75l75,97.5l-228.75,116.25Zm-1005,-187.5l446.25,71.25l-472.5,165l26.25,-236.25Zm1357.5,7.5l-150,292.5l18.75,-105l18.75,-116.25l67.5,-45l45,-26.25Zm-881.25,345l0,-93.75l-3.75,-183.75l168.75,41.25l326.25,86.25l-491.25,150Zm-262.5,37.5l-78.75,105l-270,-135l588.75,-281.25l-240,311.25Zm-63.75,101.25l311.25,-408.75l7.5,217.5l0,52.5l-318.75,138.75Zm1046.25,-172.5l-195,-120l232.5,-116.25l-18.75,120l-18.75,116.25Zm-1316.25,22.5l90,-93.75l423.75,-150l-513.75,243.75Zm603.75,15l498.75,-150l-161.25,300l-337.5,-150Zm705,-30l-251.25,131.25l37.5,-168.75l18.75,-82.5l195,120Zm-356.25,180l146.25,-270l-22.5,86.25l-33.75,138.75l-90,45Zm-1211.25,-217.5l-22.5,-52.5l120,60l108.75,56.25l-183.75,-18.75l-22.5,-45Zm457.5,191.25l-401.25,-131.25l172.5,15l116.25,60l112.5,56.25Zm75,18.75l318.75,-135l101.25,157.5l-420,-22.5Zm648.75,11.25l-217.5,11.25l-101.25,-153.75l318.75,142.5Z" style="fill:#ad9fca;fill-rule:nonzero;stroke:#504075;stroke-width:3.13px;"/><path d="M11968.2,1539.54l37.5,-637.5l0,-3.75c0,-3.75 -3.75,-3.75 -3.75,-3.75l-48.75,-86.25l-37.5,-337.5l52.5,-198.75l0,-3.75l-3.75,-3.75l-266.25,26.25l-337.5,-26.25l-105,26.25l-3.75,3.75l-48.75,150l75,303.75l-63.75,678.75l37.5,303.75l26.25,375l-37.5,86.25l0,3.75l-11.25,210l0,7.5l22.5,375l3.75,3.75l277.5,22.5l296.25,0l146.25,-22.5c3.75,0 3.75,-3.75 3.75,-3.75l11.25,-172.5l0,-690l-22.5,-386.25Zm-750,-1113.75l41.25,-127.5l86.25,-22.5l-127.5,150Zm738.75,-150l-48.75,191.25l-210,-71.25l258.75,-120Zm-22.5,0l-243.75,112.5l11.25,-90l232.5,-22.5Zm-555,0l300,22.5l-153.75,67.5l-146.25,-90Zm131.25,97.5l-56.25,78.75l-116.25,153.75l22.5,-326.25l150,93.75Zm-157.5,-90l-11.25,187.5l-11.25,138.75l-116.25,-165l138.75,-161.25Zm341.25,18.75l-11.25,90l-142.5,-22.5l153.75,-67.5Zm-138.75,75l116.25,22.5l-315,198.75l168.75,-225l30,3.75Zm138.75,247.5l11.25,217.5l-363.75,-221.25l341.25,-217.5l11.25,221.25Zm210,-150l-187.5,352.5l-26.25,-423.75l213.75,71.25Zm-618.75,255l-67.5,-258.75l63.75,86.25l45,63.75l-26.25,63.75l-15,45Zm622.5,-240l37.5,315l-142.5,26.25l-82.5,11.25l131.25,-251.25l56.25,-101.25Zm-566.25,142.5l360,217.5l-240,217.5l-120,-435Zm-7.5,3.75l45,165l63.75,236.25l-153.75,-288.75l45,-112.5Zm-108.75,780l60,-637.5l120,468.75l-161.25,150l-18.75,18.75Zm71.25,-630l157.5,292.5l-45,157.5l-112.5,-450Zm652.5,30l41.25,75l-183.75,-30l-67.5,-11.25l210,-33.75Zm-232.5,37.5l273.75,48.75l-225,262.5l-37.5,-232.5l-11.25,-78.75Zm-108.75,386.25l-142.5,-165l236.25,-210l-93.75,375Zm150,-67.5l-138.75,71.25l93.75,-367.5l45,296.25Zm228.75,-247.5l-198.75,457.5l-22.5,-202.5l97.5,-112.5l123.75,-142.5Zm7.5,3.75l-37.5,600l-165,-127.5l202.5,-472.5Zm-581.25,318.75l11.25,-41.25l37.5,-120l67.5,82.5l71.25,78.75l-187.5,0Zm206.25,3.75l138.75,-67.5l11.25,105l11.25,101.25l-78.75,-67.5l-82.5,-71.25Zm-296.25,285l90,-281.25l187.5,0l-330,450l52.5,-168.75Zm423.75,15l-60,300l-71.25,-588.75l161.25,142.5l-30,146.25Zm-487.5,153.75l-33.75,-273.75l97.5,-93.75l75,-67.5l-90,281.25l-48.75,153.75Zm15,11.25l322.5,-438.75l-90,296.25l-232.5,142.5Zm405,142.5l-165,-281.25l93.75,-300l33.75,288.75l37.5,292.5Zm15,0l93.75,-442.5l90,172.5l-183.75,270Zm262.5,-318.75l-67.5,45l-41.25,-75l-45,-86.25l123.75,93.75l30,22.5Zm0,7.5l22.5,345l-3.75,-15l-82.5,-285l63.75,-45Zm-405,472.5l-288.75,-288.75l120,-71.25l123.75,-75l18.75,172.5l26.25,262.5Zm427.5,-93.75l-285,-48.75l187.5,-277.5l97.5,326.25Zm-416.25,93.75l-45,-416.25l161.25,277.5l-37.5,45l-78.75,93.75Zm-277.5,82.5l-22.5,-360l288.75,288.75l-266.25,71.25Zm442.5,-210l232.5,41.25l-386.25,90l116.25,-138.75l37.5,7.5Zm105,221.25l-71.25,86.25l-191.25,-165l405,-97.5l-142.5,176.25Zm-30,52.5l180,-221.25l0,135l-142.5,78.75l-60,33.75l22.5,-26.25Zm-236.25,108.75l-75,26.25l71.25,-258.75l187.5,165l-183.75,67.5Zm-311.25,-90l30,-75l236.25,-63.75l-266.25,138.75Zm180,-18.75l-198.75,228.75l11.25,-195l288.75,-150l-101.25,116.25Zm-183.75,232.5l300,-345l-37.5,138.75l-33.75,112.5l-228.75,93.75Zm675,-277.5l45,-22.5l-300,461.25l93.75,-348.75l161.25,-90Zm-18.75,510l-240,-48.75l311.25,-480l-71.25,528.75Zm26.25,-146.25l48.75,-337.5l0,457.5l-67.5,26.25l18.75,-146.25Zm-442.5,-105l-3.75,-67.5l262.5,-97.5l-172.5,315l-63.75,112.5l-22.5,-262.5Zm30,270l221.25,-401.25l-86.25,333.75l-135,67.5Zm-285,-236.25l240,-97.5l-37.5,105l-108.75,318.75l-93.75,-326.25Zm105,337.5l138.75,-420l22.5,326.25l-161.25,93.75Zm-78.75,26.25l-22.5,-326.25l11.25,41.25l75,266.25l-22.5,7.5l-41.25,11.25Zm378.75,26.25l22.5,-213.75l60,11.25l172.5,37.5l-255,165Zm-86.25,-97.5l-37.5,-45l138.75,-67.5l-11.25,82.5l-15,123.75l-75,-93.75Zm427.5,-86.25l-11.25,146.25l-18.75,-41.25l-33.75,-86.25l33.75,-11.25l30,-7.5Zm-15,165l-135,22.5l78.75,-161.25l11.25,30l45,108.75Zm-318.75,22.5l247.5,-157.5l-75,157.5l-172.5,0Zm-127.5,-45l3.75,41.25l-71.25,-15l-108.75,-30l63.75,-33.75l97.5,-56.25l15,93.75Zm101.25,45l-82.5,0l-18.75,-97.5l-3.75,-30l105,127.5Zm-146.25,-3.75l-195,-18.75l52.5,-18.75l41.25,11.25l101.25,26.25Z" style="fill:#ad9fca;fill-rule:nonzero;stroke:#504075;stroke-width:3.13px;"/></g></g></svg>