<?xml version="1.0" encoding="UTF-8" standalone="no"?><!DOCTYPE svg PUBLIC "-//W3C//DTD SVG 1.1//EN" "http://www.w3.org/Graphics/SVG/1.1/DTD/svg11.dtd"><svg width="100%" height="100%" viewBox="0 0 949 758" version="1.1" xmlns="http://www.w3.org/2000/svg" xmlns:xlink="http://www.w3.org/1999/xlink" xml:space="preserve" xmlns:serif="http://www.serif.com/" style="fill-rule:evenodd;clip-rule:evenodd;stroke-linejoin:round;stroke-miterlimit:2;"><path d="M84.65,186.8c41.35,17.92 65.11,55 65.11,55c0,0 -43.29,8 -84.65,-9.91c-41.36,-17.91 -65.11,-55 -65.11,-55c0,0 43.29,-8.01 84.65,9.91Z" style="fill:#a777d7;fill-rule:nonzero;"/><path d="M211.55,118c12.79,-21 34.57,-31 34.57,-31c0,0 1,23.94 -11.75,44.88c-12.75,20.94 -34.58,30.93 -34.58,30.93c0,0 -1.04,-23.93 11.76,-44.81Z" style="fill:#a777d7;fill-rule:nonzero;"/><path d="M117.53,140.47c9.15,32.66 34.37,54.16 34.37,54.16c0,0 10.39,-31.47 1.24,-64.14c-9.15,-32.67 -34.38,-54.16 -34.38,-54.16c0,0 -10.39,31.47 -1.23,64.14Z" style="fill:#504075;fill-rule:nonzero;"/><path d="M847.87,146.21c0,-3.979 -3.231,-7.21 -7.21,-7.21l-714.58,0c-3.979,0 -7.21,3.231 -7.21,7.21l0,350.58c0,3.979 3.231,7.21 7.21,7.21l714.58,0c3.979,0 7.21,-3.231 7.21,-7.21l0,-350.58Z" style="fill:#77749d;"/><path d="M118.87,482l729,0l0,14.79c0,3.955 -3.255,7.21 -7.21,7.21l-714.58,0c-3.955,0 -7.21,-3.255 -7.21,-7.21l0,-14.79Z" style="fill-opacity:0.1;fill-rule:nonzero;"/><path d="M243.87,457.5c0,-1.38 -1.12,-2.5 -2.5,-2.5l-49,0c-1.38,0 -2.5,1.12 -2.5,2.5l0,22c0,1.38 1.12,2.5 2.5,2.5l49,0c1.38,0 2.5,-1.12 2.5,-2.5l0,-22Z" style="fill:#6c63ff;"/><path d="M295.87,480c0,-1.104 -0.896,-2 -2,-2l-33,0c-1.104,0 -2,0.896 -2,2c0,1.104 0.896,2 2,2l33,0c1.104,0 2,-0.896 2,-2Z" style="fill:#525071;"/><path d="M226.02,210.38c26.39,4.87 53.31,0 79.59,-3.3l79.87,-10c3.23,-0.41 7.93,-2.34 9.83,1.61c1.07,2.21 0.35,7 0.43,9.54c0.21,7 0.19,14 0,21c-0.36,13.38 -1.34,26.73 -2.59,40.05c-2.43,26.07 -5.87,52 -7.59,78.17c-0.88,13.32 -1.32,26.68 -0.93,40c0.09,3.18 0.22,6.36 0.41,9.53c0.21,3.55 1.8,8.82 -2.07,11.19c-2.21,1.36 -6.56,1.29 -9.09,1.69c-4,0.63 -8,1.13 -12.08,1.54c-26.89,2.69 -54.13,1.57 -81.12,1.41l-81.5,-0.42l-19.88,-0.11c-1.8,0 -8.29,1.08 -9.4,-1.06c-0.47,-0.91 0.78,-5.17 1,-6.31c0.307,-1.88 0.64,-3.757 1,-5.63c2.32,-13.15 5.06,-26.22 7.82,-39.28c5.93,-28 12,-56.14 14.44,-84.74c1.21,-14.35 0.41,-28.83 1.89,-43.15c0.69,-6.65 1.51,-21.49 10.36,-22.08c7.5,-0.5 15.22,0 22.74,0c0.823,0 1.5,-0.677 1.5,-1.5c0,-0.823 -0.677,-1.5 -1.5,-1.5c-7.1,0 -14.21,-0.19 -21.31,-0.05c-4.72,0.09 -8,1.21 -10.25,5.55c-5.75,11.14 -5.16,26 -5.34,38.16c-0.43,29.11 -4.9,57.6 -10.72,86.07c-2.93,14.33 -6.09,28.61 -9,42.95c-1.37,6.85 -2.68,13.72 -3.88,20.61c-0.56,3.28 -3.39,10.51 -0.9,13.52c2.49,3.01 10.15,1.39 13.58,1.41l23.86,0.14l45.72,0.26c29.54,0.17 59.18,1 88.71,0.13c14.1,-0.42 29,-1 42.73,-4.37c4.09,-1 6.06,-2.88 6.22,-7.24c0.24,-6.76 -0.86,-13.73 -1,-20.52c-1,-58.1 12.65,-115.39 11.25,-173.51c-0.09,-3.95 1.4,-13.91 -2.92,-16.3c-1.94,-1.08 -4.46,-0.49 -6.5,-0.25c-3.9,0.45 -7.79,1 -11.69,1.46l-50.65,6.32c-16.19,2 -32.37,4.16 -48.59,6c-17.17,2 -34.51,3.19 -51.62,0c-1.89,-0.35 -2.7,2.54 -0.8,2.89l-0.03,0.12Z" style="fill:#525071;fill-rule:nonzero;"/><path d="M194.18,245.73l199.82,-9.8c1.93,-0.1 1.94,-3.1 0,-3l-199.82,9.8c-1.92,0.09 -1.93,3.09 0,3Z" style="fill:#525071;fill-rule:nonzero;"/><path d="M255.74,221c-0.875,0.928 -1.363,2.156 -1.363,3.431c0,2.037 1.244,3.879 3.133,4.639c2.69,1.23 5.85,0.2 8.52,-0.47c4,-1 8,-1.89 12.11,-2.62c8.945,-1.584 18.006,-2.427 27.09,-2.52c4.14,-0.05 8.25,0.14 12.39,0.32c3,0.12 6.23,0.36 8.77,-1.5c2.9,-2.12 3.84,-6.26 1,-8.84c-4,-3.65 -12.62,-1.53 -17.24,-1.15c-16.764,1.393 -33.42,3.878 -49.86,7.44c-1.88,0.4 -1.09,3.3 0.8,2.89c10.847,-2.34 21.777,-4.22 32.79,-5.64c5.413,-0.667 10.837,-1.23 16.27,-1.69c2.56,-0.21 5.12,-0.4 7.68,-0.55c1,-0.06 2.06,-0.17 3.08,-0.14c3.17,0.07 3.54,-0.5 1.64,3.33c-1.69,3.39 -1.15,3 -4.08,2.89c-1.24,0 -2.48,-0.14 -3.72,-0.2c-2.54,-0.107 -5.08,-0.163 -7.62,-0.17c-5.407,0 -10.8,0.26 -16.18,0.78c-4.56,0.44 -9.11,1.06 -13.62,1.86c-2.82,0.5 -5.62,1.08 -8.41,1.72c-1.23,0.29 -2.47,0.59 -3.7,0.9c-0.59,0.16 -1.19,0.3 -1.78,0.45c-2.187,0.76 -4.05,-0.24 -5.59,-3c1.34,-1.39 -0.77,-3.52 -2.12,-2.12l0.01,-0.04Z" style="fill:#525071;fill-rule:nonzero;"/><path d="M291.96,263.68c-14.47,-0.56 -30.1,3.35 -39.63,15c-7.46,9.11 -11.71,24.74 -3.81,35c8.49,11 27.11,9.06 38.34,4.37c11.88,-5 24.88,-15.31 28.45,-28.21c4.45,-16.11 -10,-28.29 -25.05,-28.47c-1.93,0 -1.93,3 0,3c8.58,0.1 17,3.78 21,11.77c4.19,8.42 0.58,17.26 -5,24c-8.94,10.73 -22.92,18.82 -37.16,18.59c-8.55,-0.13 -18,-3.06 -20.65,-12.08c-2.18,-7.31 -0.52,-15.3 3.28,-21.78c8.22,-14 24.95,-18.74 40.29,-18.14c1.93,0.07 1.93,-2.93 0,-3l-0.06,-0.05Z" style="fill:#525071;fill-rule:nonzero;"/><path d="M277.59,285.9c-0.434,-0.161 -0.893,-0.243 -1.355,-0.243c-2.14,0 -3.9,1.761 -3.9,3.9c0,0.115 0.005,0.229 0.015,0.343c0.3,3.9 4.6,5 7.83,4.77c2.79,-0.24 6.05,-1.27 5.07,-4.76c-0.365,-1.249 -1.256,-2.28 -2.44,-2.82c-0.895,-0.355 -1.866,-0.475 -2.82,-0.35c-0.37,0 -3.76,1.24 -2.32,-0.25l-2.36,-0.31c0.53,0.523 0.795,1.259 0.72,2c0.014,0.818 0.691,1.484 1.51,1.484c0.259,0 0.514,-0.067 0.74,-0.194c0.245,-0.102 0.507,-0.155 0.772,-0.155c1.097,0 2,0.903 2,2c0,0.167 -0.021,0.333 -0.062,0.495c-0.026,0.112 -0.039,0.227 -0.039,0.342c0,0.828 0.681,1.51 1.51,1.51c0.512,0 0.991,-0.261 1.269,-0.692c1,-1.8 2.21,-5.38 0.71,-7.26c-1,-1.27 -2.93,-0.89 -4.13,-0.15c-0.741,0.524 -1.43,1.117 -2.06,1.77c-1.21,1.07 -2,1.57 -1.55,-0.48c0.75,-3.73 4.31,-6.7 7.56,-8.19l-2.2,-1.69c-1.153,4.334 -3.216,8.374 -6.05,11.85l2.56,1.06c-0.148,-2.807 1.489,-5.42 4.08,-6.51l-1.47,0l0.78,1.28c-0.29,1.89 2.6,2.7 2.89,0.79c0.38,-2.47 -1.18,-5.68 -4.07,-4.47c-3.45,1.44 -5.24,5.39 -5.17,8.91c0,1.2 1.7,2.13 2.57,1.07c3.18,-3.863 5.502,-8.36 6.81,-13.19c0.028,-0.117 0.043,-0.238 0.043,-0.358c0,-0.834 -0.686,-1.52 -1.52,-1.52c-0.256,0 -0.509,0.064 -0.733,0.188c-2.995,1.354 -5.527,3.559 -7.28,6.34c-1.22,2 -2.75,5.12 -1.51,7.42c0.559,1.012 1.627,1.643 2.784,1.643c0.549,0 1.088,-0.143 1.566,-0.413c0.925,-0.548 1.769,-1.221 2.51,-2c0.37,-0.33 0.78,-0.9 1.27,-1c0.44,-0.3 0.42,-0.13 -0.07,0.53c-0.006,1.036 -0.308,2.049 -0.87,2.92l2.74,1.15c0.11,-0.417 0.166,-0.847 0.166,-1.278c0,-2.743 -2.257,-5 -5,-5c-0.791,0 -1.571,0.188 -2.276,0.548l2.26,1.3c0.047,-1.272 -0.353,-2.522 -1.13,-3.53c-0.275,-0.454 -0.769,-0.731 -1.299,-0.731c-0.392,0 -0.768,0.151 -1.051,0.421c-1.52,1.59 -1.81,4.34 0.1,5.81c1.43,1.09 2.13,0 3.7,-0.25c5.33,-0.69 2.22,1.71 0.34,1.79c-0.841,0.09 -1.691,0.029 -2.51,-0.18c-2.087,-0.707 -2.217,-1.617 -0.39,-2.73c1.79,0.73 2.56,-2.17 0.8,-2.89l-0.04,-0.04Z" style="fill:#525071;fill-rule:nonzero;"/><path d="M275.18,291.38c1.23,4 -3.85,5.32 -6.26,6.7c-1.691,0.948 -3.166,2.239 -4.33,3.79c-2.52,3.38 -3.46,7.68 -4.29,11.73c-0.38,1.89 2.51,2.69 2.9,0.8c0.457,-2.976 1.308,-5.878 2.53,-8.63c1.8,-3.58 4.38,-4.78 7.74,-6.62c3.36,-1.84 5.79,-4.69 4.6,-8.57c-0.56,-1.84 -3.46,-1.05 -2.89,0.8Z" style="fill:#525071;fill-rule:nonzero;"/><path d="M280.18,289.37c-1.475,0.204 -2.565,1.512 -2.5,3c0,1.19 0.79,1.95 1.33,2.9c1.282,1.944 2.26,4.071 2.9,6.31c0.48,2.15 0.95,6 -0.17,8c-2.07,3.71 -5.81,3 -9,3c-3,0 -5.32,1 -5.22,-3.18c0.06,-2.35 1.7,-4.73 3,-6.58l-2.74,-0.36c0.578,3.053 0.883,6.152 0.91,9.26c0,1.39 2.13,2.16 2.79,0.75c1.608,-3.382 2.884,-6.912 3.81,-10.54l-2.95,-0.4l0.52,7.6c0.022,0.813 0.696,1.47 1.509,1.47c0.521,0 1.005,-0.269 1.281,-0.71c0.35,-0.386 0.607,-0.848 0.75,-1.35c0.1,-0.47 -0.82,-3.64 -1.19,-2.51l2.94,0.4l0.21,-7.22l-3,0.4c0.634,2.036 0.825,4.184 0.56,6.3c-0.19,1.67 2.62,2.05 3,0.4l1.88,-9.7l-2.74,0.35c0.651,1.341 0.831,2.864 0.51,4.32c-0.22,1.92 2.78,1.9 3,0c0.255,-1.991 -0.064,-4.014 -0.92,-5.83c-0.274,-0.45 -0.764,-0.726 -1.291,-0.726c-0.668,0 -1.261,0.444 -1.449,1.086l-1.89,9.7l2.95,0.4c0.3,-2.384 0.071,-4.805 -0.67,-7.09c-0.186,-0.639 -0.775,-1.081 -1.44,-1.081c-0.812,0 -1.484,0.659 -1.5,1.471l-0.21,7.22c0,1.75 2.43,2 2.95,0.4l0.16,-0.49c0.141,-0.519 -0.004,-1.075 -0.38,-1.46c-3.11,-3.38 -3.74,2 -4.82,3.49l2.8,0.76l-0.52,-7.6c-0.11,-1.62 -2.51,-2.12 -2.95,-0.4c-0.845,3.382 -2.017,6.675 -3.5,9.83l2.8,0.76c-0.032,-3.376 -0.367,-6.743 -1,-10.06c-0.26,-1.38 -2.07,-1.32 -2.74,-0.36c-2,2.88 -5.46,9.17 -2.79,12.62c2.33,3 9.66,1.84 12.79,1.65c4.94,-0.28 6.73,-3.41 7.27,-8.07c0.257,-2.231 0.132,-4.491 -0.37,-6.68c-0.27,-1.18 -3,-8.66 -3.82,-8.51c1.9,-0.35 1.09,-3.25 -0.8,-2.9l-0.05,-0.04Z" style="fill:#525071;fill-rule:nonzero;"/><path d="M274.37,296.11l-8.19,10.81l2.59,1.51l6,-8.68l-2.74,-1.16l-2.99,11.41c-0.026,0.112 -0.039,0.227 -0.039,0.342c0,0.828 0.681,1.51 1.51,1.51c0.512,0 0.991,-0.261 1.269,-0.692c1.361,-2.254 2.888,-4.404 4.57,-6.43l-2.5,-1.46c-0.671,2.583 -1.966,4.963 -3.77,6.93l2.51,1.46c0.154,-1.382 0.521,-2.731 1.09,-4c0.77,-1.73 -1.67,-3.26 -2.59,-1.52c-0.846,1.585 -1.812,3.103 -2.89,4.54l2.74,0.36l0.61,-2.85l-2.74,-0.36l0.44,2.5c0.185,0.645 0.78,1.093 1.451,1.093c0.396,0 0.777,-0.155 1.059,-0.433c2.536,-2.625 4.57,-5.692 6,-9.05l-2.58,0c0.678,1.25 1.154,2.601 1.41,4c0.36,1.8 2.75,1.13 2.94,-0.4c0.43,-3.35 0.65,-6.723 0.66,-10.1l-3,0l0,6.29c0,1.63 2.67,2.11 2.95,0.4c0.198,-1.517 0.698,-2.979 1.47,-4.3l-2.63,0c0.634,1.022 0.979,2.197 1,3.4c0,0.823 0.677,1.5 1.5,1.5c0.823,0 1.5,-0.677 1.5,-1.5l0.38,-2l-2.89,0c0.29,1.77 1.39,11.74 -2.52,10.57c-0.66,-0.16 -0.85,-0.12 -0.57,0.11l0.89,-1.9l2.09,-4.43l-2.8,-0.76c0.18,2.06 0.37,5 -0.87,6.76c-1,1.43 -4.08,2 -5.65,1.16c-1.036,-0.739 -1.922,-1.669 -2.61,-2.74l-2.05,2c1.66,1.21 4.35,4.18 6.49,4.35c1.63,0.13 3,-1.22 4.07,-2.3c3.315,-3.426 5.084,-8.066 4.89,-12.83c0,-0.823 -0.677,-1.5 -1.5,-1.5c-0.823,0 -1.5,0.677 -1.5,1.5l0,3.42c0,0.823 0.677,1.5 1.5,1.5c0.823,0 1.5,-0.677 1.5,-1.5l0,-8.39c0,-0.823 -0.677,-1.5 -1.5,-1.5c-0.823,0 -1.5,0.677 -1.5,1.5c-0.005,2.011 -0.179,4.018 -0.52,6l2.95,0.4c-0.235,-2.389 -0.345,-4.789 -0.33,-7.19c-0.011,-0.815 -0.684,-1.48 -1.5,-1.48c-0.665,0 -1.254,0.442 -1.44,1.08c-0.45,1.91 -1,3.79 -1.53,5.66l2.74,-0.36l-0.21,-0.8c-0.14,-1.91 -3.14,-1.92 -3,0c0.033,0.81 0.245,1.602 0.62,2.32c0.58,1.22 2.39,0.79 2.74,-0.36c0.57,-1.88 1.08,-3.76 1.53,-5.66l-2.95,-0.4c-0.015,2.401 0.095,4.801 0.33,7.19c0.15,1.54 2.63,2.2 2.94,0.4c0.399,-2.259 0.61,-4.546 0.63,-6.84l-3,0l0,8.39l3,0l0,-3.42l-3,0c0.176,3.771 -1.135,7.465 -3.65,10.28c-0.39,0.443 -0.811,0.857 -1.26,1.24c-0.71,0.68 -1.36,0.58 -1.93,-0.31c-1.42,-0.59 -2.89,-2.11 -4.13,-3c-1.24,-0.89 -2.94,0.87 -2.06,2.05c2.3,3.06 5.73,6.47 10,5c4.49,-1.59 5.1,-7.67 4.76,-11.67c-0.11,-1.33 -2.1,-2.23 -2.79,-0.75c-1,2.11 -2,4.21 -3,6.33c-0.35,0.74 -1,1.76 -0.9,2.64c0.33,2.25 3.06,1.88 4.74,1.75c6.51,-0.49 5.48,-9.72 4.73,-14.36c-0.25,-1.54 -2.49,-1.3 -2.89,0c-0.318,0.913 -0.483,1.873 -0.49,2.84l3,0c-0.109,-1.719 -0.59,-3.395 -1.41,-4.91c-0.273,-0.454 -0.765,-0.733 -1.295,-0.733c-0.53,0 -1.022,0.279 -1.295,0.733c-0.894,1.544 -1.498,3.238 -1.78,5l3,0.4l0,-6.29c0,-0.823 -0.677,-1.5 -1.5,-1.5c-0.823,0 -1.5,0.677 -1.5,1.5c-0.01,3.377 -0.23,6.75 -0.66,10.1l2.95,-0.4c-0.339,-1.635 -0.915,-3.211 -1.71,-4.68c-0.273,-0.454 -0.765,-0.733 -1.295,-0.733c-0.53,0 -1.022,0.279 -1.295,0.733c-1.304,3.132 -3.179,5.994 -5.53,8.44l2.51,0.66l-0.44,-2.5c-0.23,-1.33 -2.11,-1.37 -2.74,-0.36c-1.004,1.519 -1.334,3.389 -0.91,5.16c0.25,1.42 2.05,1.27 2.74,0.36c1.078,-1.434 2.044,-2.948 2.89,-4.53l-2.59,-1.52c-0.691,1.494 -1.163,3.081 -1.4,4.71c-0.18,1.32 1.39,2.7 2.51,1.46c2.15,-2.352 3.706,-5.184 4.54,-8.26c0.37,-1.36 -1.51,-2.65 -2.51,-1.46c-1.84,2.205 -3.511,4.545 -5,7l2.74,1.16l3.05,-11.37c0.026,-0.112 0.039,-0.227 0.039,-0.342c0,-0.828 -0.681,-1.51 -1.51,-1.51c-0.512,0 -0.991,0.261 -1.269,0.692l-6,8.69c-1.12,1.61 1.45,3 2.59,1.51l8.16,-10.8c1.16,-1.54 -1.44,-3 -2.59,-1.52l-0.08,0Z" style="fill:#525071;fill-rule:nonzero;"/><path d="M401.95,332.2c12,-7.34 21.54,-18.29 32.14,-27.45c11.5,-9.93 23.57,-19.18 36,-27.94c24.14,-17 49.49,-32.21 74.82,-47.38c0.434,-0.275 0.698,-0.754 0.698,-1.268c0,-0.823 -0.677,-1.5 -1.5,-1.5c-0.247,0 -0.49,0.061 -0.708,0.178c-25.33,15.17 -50.69,30.35 -74.83,47.38c-11.39,8 -22.51,16.48 -33.17,25.48c-11.6,9.8 -21.93,22 -35,29.91c-1.65,1 -0.14,3.6 1.51,2.59l0.04,0Z" style="fill:#525071;fill-rule:nonzero;"/><path d="M583.64,182.85c-13,1.32 -27,4.63 -35,16c-6.91,9.78 -6.76,26.84 -0.27,36.88c7.37,11.41 22.43,11.82 34.13,8.13c11.7,-3.69 23.81,-10.16 23.7,-24.14c-0.06,-7.5 -2.77,-15.31 -5.76,-22.11c-2.58,-5.87 -7.15,-11 -14.07,-10.35c-1.91,0.18 -1.93,3.18 0,3c9.27,-0.86 12.25,10.15 14.45,17.1c2,6.49 3.85,14.17 0.71,20.62c-3.14,6.45 -10.71,9.74 -17.18,12.1c-7,2.54 -14.69,4.09 -22,2c-14.48,-4.05 -18.48,-22.4 -14.31,-35.42c4.8,-15 21.8,-19.41 35.65,-20.81c1.9,-0.19 1.92,-3.19 0,-3l-0.05,0Z" style="fill:#525071;fill-rule:nonzero;"/><path d="M603.64,298.85c-13,1.32 -27,4.63 -35,16c-6.91,9.78 -6.76,26.84 -0.27,36.88c7.37,11.41 22.43,11.82 34.13,8.13c11.7,-3.69 23.81,-10.16 23.7,-24.14c-0.06,-7.5 -2.77,-15.31 -5.76,-22.11c-2.58,-5.87 -7.15,-11 -14.07,-10.35c-1.91,0.18 -1.93,3.18 0,3c9.27,-0.86 12.25,10.15 14.45,17.1c2,6.49 3.85,14.17 0.71,20.62c-3.14,6.45 -10.71,9.74 -17.18,12.1c-7,2.54 -14.69,4.09 -22,2c-14.48,-4.05 -18.48,-22.4 -14.31,-35.42c4.8,-15 21.8,-19.41 35.65,-20.81c1.9,-0.19 1.92,-3.19 0,-3l-0.05,0Z" style="fill:#525071;fill-rule:nonzero;"/><path d="M564.03,212.06l9.47,10.8c0.281,0.272 0.658,0.423 1.049,0.423c0.671,0 1.266,-0.448 1.451,-1.093c2,-5.26 1.62,-10.71 2.09,-16.24c0.518,-5.716 1.953,-11.311 4.25,-16.57c4.613,-10.666 12.438,-19.634 22.38,-25.65c1.65,-1 0.14,-3.6 -1.51,-2.59c-9.804,5.903 -17.671,14.546 -22.63,24.86c-2.428,5.019 -4.112,10.365 -5,15.87c-1,6.49 -0.09,13.29 -2.49,19.52l2.51,-0.67l-9.42,-10.78c-1.28,-1.45 -3.39,0.68 -2.12,2.12l-0.03,0Z" style="fill:#525071;fill-rule:nonzero;"/><path d="M406.78,343.89c51.58,-1.573 103.173,-1.907 154.78,-1c1.93,0 1.93,-3 0,-3c-51.593,-0.92 -103.187,-0.587 -154.78,1c-1.93,0.06 -1.94,3.06 0,3Z" style="fill:#525071;fill-rule:nonzero;"/><path d="M572.34,314.31c17.633,6.92 34.594,15.443 50.67,25.46c1.64,1 3.15,-1.57 1.51,-2.59c-16.288,-10.141 -33.474,-18.764 -51.34,-25.76c-1.79,-0.71 -2.57,2.19 -0.79,2.89l-0.05,0Z" style="fill:#525071;fill-rule:nonzero;"/><path d="M604.36,300.72c-17.877,20.84 -28.238,47.098 -29.41,74.53c-0.08,1.93 2.92,1.93 3,0c1.136,-26.645 11.186,-52.152 28.53,-72.41c1.25,-1.46 -0.86,-3.59 -2.12,-2.12Z" style="fill:#525071;fill-rule:nonzero;"/><path d="M204.41,333l111.77,-1.46l12.85,-0.17c2.31,0 4.62,-0.08 6.93,-0.09c3.25,0 5.44,2.7 5.38,6c-0.15,7 -4.55,6.75 -10.31,7l-13.89,0.63l-56.56,2.49c-10.13,0.45 -20.27,1 -30.4,1.35c-9.14,0.28 -26.52,-2.7 -22.46,-16c0.56,-1.85 -2.33,-2.64 -2.9,-0.8c-2,6.54 1.54,13.18 7.24,16.61c8.09,4.86 18.75,3.21 27.68,2.81l69.44,-3.15l16.86,-0.75c4.32,-0.2 10.33,0.68 14.3,-1.33c4.66,-2.35 5.48,-11.68 2.54,-15.61c-1.51,-2 -3.63,-2.18 -6,-2.27c-6.22,-0.24 -12.55,0.17 -18.78,0.25l-34.62,0.46l-79.11,1c-1.93,0 -1.93,3 0,3l0.04,0.03Z" style="fill:#525071;fill-rule:nonzero;"/><path d="M786.99,611c0,50.24 31.52,90.9 70.47,90.9" style="fill:#504075;fill-rule:nonzero;"/><path d="M857.46,701.91c0,-50.81 35.18,-91.92 78.65,-91.92" style="fill:#a777d7;fill-rule:nonzero;"/><path d="M812.53,615.56c0,47.73 20.1,86.35 44.93,86.35" style="fill:#a777d7;fill-rule:nonzero;"/><path d="M857.46,701.91c0,-64.92 40.66,-117.46 90.9,-117.46" style="fill:#504075;fill-rule:nonzero;"/><ellipse cx="854.41" cy="716.31" rx="17.52" ry="2.96" style="fill:#6c63ff;fill-opacity:0.1;"/><path d="M842.64,702.55c0,0 10,-0.31 13,-2.45c3,-2.14 15.37,-4.71 16.12,-1.27c0.75,3.44 15,17.11 3.73,17.2c-11.27,0.09 -26.22,-1.76 -29.22,-3.59c-3,-1.83 -3.63,-9.89 -3.63,-9.89Z" style="fill:#a8a8a8;fill-rule:nonzero;"/><path d="M875.7,714.83c-11.28,0.09 -26.21,-1.76 -29.22,-3.59c-2.29,-1.39 -3.2,-6.4 -3.51,-8.7l-0.33,0c0,0 0.63,8.06 3.64,9.89c3.01,1.83 17.94,3.68 29.22,3.59c3.26,0 4.38,-1.19 4.32,-2.9c-0.45,1.04 -1.64,1.69 -4.12,1.71Z" style="fill-opacity:0.2;fill-rule:nonzero;"/><path d="M22.49,640.36c0,40 25.07,72.32 56.06,72.32" style="fill:#504075;fill-rule:nonzero;"/><path d="M78.55,712.68c0,-40.42 28,-73.13 62.57,-73.13" style="fill:#a777d7;fill-rule:nonzero;"/><path d="M42.8,644c0,38 16,68.7 35.75,68.7" style="fill:#a777d7;fill-rule:nonzero;"/><path d="M78.55,712.68c0,-51.65 32.35,-93.45 72.32,-93.45" style="fill:#504075;fill-rule:nonzero;"/><ellipse cx="76.12" cy="724.14" rx="13.94" ry="2.36" style="fill:#6c63ff;fill-opacity:0.1;"/><path d="M66.76,713.19c0,0 7.95,-0.25 10.34,-2c2.39,-1.75 12.24,-3.75 12.83,-1c0.59,2.75 11.95,13.61 3,13.68c-8.95,0.07 -20.86,-1.4 -23.25,-2.85c-2.39,-1.45 -2.92,-7.83 -2.92,-7.83Z" style="fill:#a8a8a8;fill-rule:nonzero;"/><path d="M93.06,723c-9,0.07 -20.86,-1.4 -23.25,-2.86c-1.82,-1.1 -2.54,-5.09 -2.79,-6.92l-0.26,0c0,0 0.5,6.41 2.89,7.87c2.39,1.46 14.28,2.92 23.25,2.85c2.59,0 3.49,-0.94 3.44,-2.31c-0.36,0.8 -1.35,1.31 -3.28,1.37Z" style="fill-opacity:0.2;fill-rule:nonzero;"/><g id="b30eccf6-7cfe-48df-9caa-415a128bd568"><g><path d="M739.32,661.96l0,13.779l11.482,0.765l-0.766,-16.075l-10.716,1.531Z" style="fill:#a0616a;fill-rule:nonzero;"/><path d="M741.616,668.084l-7.655,-1.531c0,0 -10.717,19.137 -17.606,20.668c-6.028,1.34 -20.261,6.196 -15.008,13.03c1.601,1.991 4.107,3.039 6.648,2.78l32.856,-2.797c0,0 13.013,0.766 13.013,-6.889l0,-25.261l-12.248,0Z" style="fill:#2f2e41;fill-rule:nonzero;"/><path d="M740.278,590.632l-3.297,74.743l20.883,5.496l-17.586,-80.239Z" style="fill:#ff5e5e;fill-rule:nonzero;"/><path d="M747.972,691.755l0,19.785l16.488,1.099l-1.099,-23.082l-15.389,2.198Z" style="fill:#a0616a;fill-rule:nonzero;"/><path d="M713.898,495.006l8.794,13.19l19.784,118.709l3.298,71.445l32.975,0l-7.695,-173.667c0,0 15.389,-18.685 4.397,-37.371l-61.553,7.694Z" style="fill:#ff7575;fill-rule:nonzero;"/><path d="M751.27,700.548l-10.992,-2.198c0,0 -15.388,27.479 -25.281,29.677c-8.479,1.885 -28.264,8.614 -21.976,18.112c2.23,3.222 6.047,4.984 9.945,4.591l47.204,-4.017c0,0 18.686,1.099 18.686,-9.892l0,-36.273l-17.586,0Z" style="fill:#2f2e41;fill-rule:nonzero;"/><circle cx="752.369" cy="321.34" r="23.082" style="fill:#a0616a;"/><path d="M739.179,333.43l0,32.975c0,1.099 25.281,-2.198 25.281,-2.198c0,0 1.099,-30.777 1.099,-34.074l-26.38,3.297Z" style="fill:#a0616a;fill-rule:nonzero;"/><path d="M766.658,347.719c0,0 -14.289,-3.297 -39.57,13.19l-4.396,0l-1.1,25.281c0,0 -15.388,16.487 -13.189,23.082c0,0 -18.686,21.983 -10.992,30.776c0,0 -17.587,20.884 -9.892,29.678c0,0 -18.686,24.181 -7.695,27.478c0,0 24.182,0 37.372,2.199c13.19,2.198 68.147,-9.893 68.147,-9.893c0,0 1.1,-28.578 0,-28.578l-1.099,0c0,0 4.397,-26.379 2.199,-27.479c0,0 1.099,-29.677 -2.199,-30.776l-17.586,-54.958Z" style="fill:#e4e0ee;fill-rule:nonzero;"/><path d="M763.131,373.032c-8.186,1.115 -15.252,6.353 -18.7,13.861c-3.177,7.002 -4.238,14.782 -3.054,22.379c3.298,21.983 10.992,28.578 10.992,28.578c0,0 -7.694,3.298 -5.496,6.595c2.198,3.297 -2.198,3.297 -2.198,3.297c0,0 0,1.1 -3.298,3.298c-3.297,2.198 -5.496,1.099 -6.595,2.198c-1.099,1.099 -5.495,0 -5.495,0c0,0 -13.19,23.083 0,25.281c13.189,2.198 18.685,-8.793 24.181,-7.694c5.496,1.099 31.875,-7.694 29.677,-28.578c-2.198,-20.884 -12.091,-70.346 -19.785,-69.247l-0.229,0.032Z" style="fill:#d0cde1;fill-rule:nonzero;"/><path d="M731.977,299.345c1.14,-4.599 4.407,-8.39 8.787,-10.198c4.325,-1.74 10.58,-6.749 14.502,-4.228c1.75,1.125 3.255,2.618 5.075,3.627c2.941,1.632 6.42,1.861 9.739,2.405c8.346,1.371 15.339,10.581 21.171,16.707c5.832,6.126 9.199,14.768 8.152,23.161c-0.692,5.537 -3.18,10.663 -4.828,15.994c-1.647,5.331 -2.384,11.385 0.284,16.286c3.06,5.62 9.676,8.199 14.142,12.783c6.354,6.817 7.543,17.044 2.924,25.137c-0.997,1.662 -2.245,3.221 -2.768,5.086c-0.523,1.866 -0.059,4.21 1.659,5.106c0.785,0.307 1.597,0.54 2.425,0.696c2.754,0.831 4.431,3.657 5.166,6.438c0.734,2.781 0.799,5.721 1.703,8.451c2.208,6.669 8.805,10.704 14.917,14.168c-12.074,-0.325 -24.34,-0.63 -36.025,2.431c-5.022,1.315 -10.819,3.118 -15.019,0.068c-2.879,-2.091 -3.977,-5.907 -4.058,-9.464c-0.081,-3.558 0.657,-7.096 0.581,-10.654c-0.162,-7.689 -4.286,-15.053 -10.365,-19.765c-3.597,-2.788 -7.828,-4.719 -11.23,-7.744c-5.871,-5.337 -8.592,-13.341 -7.192,-21.151c0.527,-2.761 1.573,-5.476 1.417,-8.283c-0.307,-5.538 -5.132,-9.871 -6.166,-15.321c-1.086,-5.725 2.172,-11.299 3.078,-17.055c0.418,-3.503 0.355,-7.048 -0.186,-10.535c-0.683,-5.785 -1.713,-11.785 -5.143,-16.494c-3.225,-4.429 -7.692,-7.369 -13.162,-7.693c-1.76,-0.104 0.707,-1.615 0,0" style="fill:#504075;fill-rule:nonzero;"/><ellipse cx="750.72" cy="322.988" rx="2.198" ry="4.397" style="fill:#a0616a;"/><path d="M131.742,610.771l8.442,84.419l14.581,-2.302l6.14,-80.582l-29.163,-1.535Z" style="fill:#ffb8b8;fill-rule:nonzero;"/><path d="M157.068,684.446l-19.954,3.069l2.302,24.559c0,0 -6.907,3.837 -2.302,16.116c4.605,12.279 4.605,15.349 4.605,15.349l15.808,-1.53c6.126,-0.593 20.849,-6.115 22.948,-11.9c0.87,-2.401 -8.421,-2.9 -10.361,-3.454c-5.372,-1.535 -13.046,-42.209 -13.046,-42.209Z" style="fill:#2f2e41;fill-rule:nonzero;"/><path d="M206.952,607.701l8.442,84.419l14.581,-2.302l6.14,-80.582l-29.163,-1.535Z" style="fill:#ffb8b8;fill-rule:nonzero;"/><circle cx="193.521" cy="311.851" r="23.791" style="fill:#ffb8b8;"/><path d="M200.045,328.351c0,0 -6.14,16.117 0,21.489c6.139,5.372 -40.675,5.372 -40.675,5.372l19.186,-34.535l21.489,7.674Z" style="fill:#ffb8b8;fill-rule:nonzero;"/><path d="M245.324,613.073c-9.977,17.651 -107.443,5.372 -107.443,5.372l-16.883,-10.744l-6.907,-3.837c0,0 4.604,-73.675 13.046,-118.954c8.442,-45.279 29.931,-48.349 29.931,-48.349l0.076,-0.89l0.691,-8.319c0,0 -0.637,-0.683 -1.734,-1.919c-6.838,-7.728 -31.396,-37.006 -27.429,-54.872c4.605,-20.721 39.14,-30.698 59.861,-31.466c20.721,-0.767 38.372,17.652 38.372,17.652l-2.993,12.547l-13.123,54.988l-0.2,1.151l-2.103,11.895c3.861,0.238 6.355,1.09 7.959,2.142c3.507,2.287 2.786,5.533 2.786,5.533l11.749,75.701l14.344,92.369Z" style="fill:#c18878;fill-rule:nonzero;"/><path d="M114.091,511.771c0,0 -3.392,33.454 4.827,34.378c8.219,0.924 5.917,-34.378 5.917,-34.378l-10.744,0Z" style="fill:#ffb8b8;fill-rule:nonzero;"/><path d="M139.416,361.351c0,0 -13.046,-0.767 -15.349,13.814c-2.302,14.582 -4.604,70.605 -4.604,70.605l-13.047,69.838l26.861,3.07l17.651,-105.908l-11.512,-51.419Z" style="fill:#c18878;fill-rule:nonzero;"/><path d="M250.696,513.305c0,0 5.372,30.698 -3.07,31.466c-8.442,0.767 -11.512,-29.931 -11.512,-29.931l14.582,-1.535Z" style="fill:#ffb8b8;fill-rule:nonzero;"/><path d="M187.211,276.226c-2.102,-0.114 -4.21,0.029 -6.277,0.424c-2.273,0.6 -4.457,1.501 -6.492,2.679c-9.507,5.048 -18.906,11.627 -23.368,21.423c-3.664,8.043 -3.538,17.296 -2.341,26.053c0.385,2.818 0.871,5.699 0.277,8.479c-1.224,5.723 -6.625,9.568 -9.078,14.881c-2.516,5.451 -1.639,11.977 0.877,17.428c0.718,1.555 1.586,3.228 1.185,4.893c-0.26,0.851 -0.695,1.637 -1.277,2.309c-1.979,2.574 -4.262,4.927 -5.964,7.692c-1.703,2.765 -2.801,6.097 -2.088,9.265c0.738,3.271 3.238,5.811 5.63,8.161c2.245,2.206 4.885,4.571 8.028,4.401c1.89,-0.102 3.59,-1.127 5.2,-2.123c4.828,-2.985 10.143,-6.687 10.901,-12.312c1.478,5.033 7.428,7.224 12.662,7.579c4.445,0.302 9.097,-0.241 12.905,-2.554c3.808,-2.314 6.579,-6.668 6.092,-11.097c-0.38,-3.458 -2.591,-7.052 -1.033,-10.162c1.183,-2.36 4.015,-3.253 6.238,-4.678c4.51,-3.014 6.686,-8.543 5.44,-13.823c-1.382,-5.384 -6.279,-10.07 -5.271,-15.536c0.595,-3.224 3.163,-5.729 4.243,-8.825c1.289,-3.694 0.316,-7.811 -1.289,-11.379c-1.605,-3.567 -3.825,-6.851 -5.194,-10.516c-0.642,-1.446 -0.864,-3.044 -0.64,-4.61c0.69,-3.304 4.404,-5.037 7.758,-5.419c3.354,-0.383 6.87,0.05 10.012,-1.183c2.911,-1.143 6.499,-4.793 5.97,-8.232c-0.498,-3.242 -5.044,-5.704 -7.572,-7.2c-7.62,-4.506 -16.818,-5.825 -25.534,-6.018Z" style="fill:#ae2973;fill-rule:nonzero;"/><path d="M157.144,435.671l0.691,-8.319c0,0 -0.637,-0.683 -1.734,-1.919l54.488,0l-2.103,11.895c3.861,0.238 -1.22,-1.435 0.384,-0.383c-13.499,-1.152 -37.758,-1.221 -51.726,-1.274Z" style="fill:#2f2e41;fill-rule:nonzero;"/><path d="M230.98,520.704l-10.982,1.043l-11.512,-84.419c3.861,0.238 6.355,1.09 7.959,2.142c3.507,2.287 2.786,5.533 2.786,5.533l11.749,75.701Z" style="fill-opacity:0.1;fill-rule:nonzero;"/><path d="M208.487,355.212l18.418,1.535l30.698,161.931l-32.233,3.069l-23.023,-125.861l6.14,-40.674Z" style="fill:#c18878;fill-rule:nonzero;"/><path d="M147.475,443.852l-15.733,74.826l13.433,-74.826l2.3,0Z" style="fill-opacity:0.1;fill-rule:nonzero;"/><path d="M231.51,684.446l-19.954,3.069l2.303,24.559c0,0 -6.907,3.837 -2.303,16.116c4.605,12.279 4.605,15.349 4.605,15.349l15.808,-1.53c6.126,-0.593 20.849,-6.115 22.948,-11.9c0.87,-2.401 -8.421,-2.9 -10.361,-3.454c-5.372,-1.535 -13.046,-42.209 -13.046,-42.209Z" style="fill:#2f2e41;fill-rule:nonzero;"/><path d="M198.51,311.598c1.1,-0.636 2.853,0.338 3.912,2.172c1.059,1.834 1.025,3.839 -0.075,4.474c-1.101,0.635 -2.854,-0.338 -3.913,-2.172c-1.059,-1.834 -1.025,-3.839 0.076,-4.474Z" style="fill:#ffb8b8;"/></g></g></svg>